# Aspose.3D Wavefront OBJ Exporter
# Copyright 2004-2023 Aspose Pty Ltd.
# File created: 03/15/2023 16:32:19

mtllib material.lib

#
# object Body
#

v -0.39999991655349728 -4.89999973773956304 0.79999941587448128
v -0.39999991655349728 -4.89999973773956304 0.79999941587448128
v -0.39999991655349728 -4.89999973773956304 0.79999941587448128
v -0.39999991655349728 -2.49999964237213136 0.79999905824661248
v -0.39999991655349728 -2.49999964237213136 0.79999905824661248
v -0.39999991655349728 -2.49999964237213136 0.79999905824661248
v -0.39999991655349728 -4.89999997615814208 -0.800000250339508
v -0.39999991655349728 -4.89999997615814208 -0.800000250339508
v -0.39999991655349728 -4.89999997615814208 -0.800000250339508
v -0.39999991655349728 -2.49999988079071048 -0.80000060796737664
v -0.39999991655349728 -2.49999988079071048 -0.80000060796737664
v -0.39999991655349728 -2.49999988079071048 -0.80000060796737664
v 0.39999991655349728 -4.89999973773956304 0.79999941587448128
v 0.39999991655349728 -4.89999973773956304 0.79999941587448128
v 0.39999991655349728 -4.89999973773956304 0.79999941587448128
v 0.39999991655349728 -2.49999964237213136 0.79999905824661248
v 0.39999991655349728 -2.49999964237213136 0.79999905824661248
v 0.39999991655349728 -2.49999964237213136 0.79999905824661248
v 0.39999991655349728 -4.89999997615814208 -0.800000250339508
v 0.39999991655349728 -4.89999997615814208 -0.800000250339508
v 0.39999991655349728 -4.89999997615814208 -0.800000250339508
v 0.39999991655349728 -2.49999988079071048 -0.80000060796737664
v 0.39999991655349728 -2.49999988079071048 -0.80000060796737664
v 0.39999991655349728 -2.49999988079071048 -0.80000060796737664
# 24 vertices

vn -1 6.580314634941839E-36 4.038968496769999E-29
vn 7.174648137343064E-43 -1 1.6292068494294654E-07
vn 4.038968496769999E-29 1.6292067073209182E-07 1
vn -1 6.580314634941839E-36 4.038968496769999E-29
vn -7.174648137343064E-43 1 -1.6292068494294654E-07
vn 4.038968496769999E-29 1.6292067073209182E-07 1
vn -1 6.580314634941839E-36 4.038968496769999E-29
vn -4.038968496769999E-29 -1.6292067073209182E-07 -1
vn 7.174648137343064E-43 -1 1.6292068494294654E-07
vn -1 6.580314634941839E-36 4.038968496769999E-29
vn -4.038968496769999E-29 -1.6292067073209182E-07 -1
vn -7.174648137343064E-43 1 -1.6292068494294654E-07
vn 7.174648137343064E-43 -1 1.6292068494294654E-07
vn 4.038968496769999E-29 1.6292067073209182E-07 1
vn 1 -6.580314634941839E-36 -4.038968496769999E-29
vn -7.174648137343064E-43 1 -1.6292068494294654E-07
vn 4.038968496769999E-29 1.6292067073209182E-07 1
vn 1 -6.580314634941839E-36 -4.038968496769999E-29
vn -4.038968496769999E-29 -1.6292067073209182E-07 -1
vn 7.174648137343064E-43 -1 1.6292068494294654E-07
vn 1 -6.580314634941839E-36 -4.038968496769999E-29
vn -4.038968496769999E-29 -1.6292067073209182E-07 -1
vn -7.174648137343064E-43 1 -1.6292068494294654E-07
vn 1 -6.580314634941839E-36 -4.038968496769999E-29
# 24 vertex normals

vt 0.625 -0.5000000596046448 0
vt 0.5625 -0.25 0
vt 0.25 -0.5 0
vt 0.625 -0.31250005960464476 0
vt 0.3125 -0.25 0
vt 0.25 -0.31249994039535524 0
vt 0.5 -0.5 0
vt 0.5 -0.5 0
vt 0.4375 -0.25 0
vt 0.5 -0.3125 0
vt 0.5 -0.3125 0
vt 0.4375 -0.25 0
vt 0.5625 -0.3125 0
vt 0.3125 -0.5 0
vt 0.3125 -0.5 0
vt 0.3125 -0.3125 0
vt 0.3125 -0.3125 0
vt 0.3125 -0.3125 0
vt 0.4375 -0.5 0
vt 0.4375 -0.3125 0
vt 0.4375 -0.5 0
vt 0.4375 -0.3125 0
vt 0.4375 -0.3125 0
vt 0.4375 -0.3125 0
# 24 texture coords

g Body
usemtl Material.001
s 1
f 1/1/1 4/4/4 10/10/10
f 1/1/1 10/10/10 7/7/7
f 8/8/8 11/11/11 22/22/22
f 8/8/8 22/22/22 19/19/19
f 21/21/21 24/24/24 18/18/18
f 21/21/21 18/18/18 15/15/15
f 14/14/14 17/17/17 6/6/6
f 14/14/14 6/6/6 3/3/3
f 9/9/9 20/20/20 13/13/13
f 9/9/9 13/13/13 2/2/2
f 23/23/23 12/12/12 5/5/5
f 23/23/23 5/5/5 16/16/16
#12 polygons


#
# object BodyOut
#

v -0.5 -4.99999964237213136 0.89999955892562864
v -0.5 -4.99999964237213136 0.89999955892562864
v -0.5 -4.99999964237213136 0.89999955892562864
v -0.5 -2.39999973773956296 0.8999991416931152
v -0.5 -2.39999973773956296 0.8999991416931152
v -0.5 -2.39999973773956296 0.8999991416931152
v -0.5 -4.9999998807907104 -0.90000039339065552
v -0.5 -4.9999998807907104 -0.90000039339065552
v -0.5 -4.9999998807907104 -0.90000039339065552
v -0.5 -2.39999997615814208 -0.90000081062316896
v -0.5 -2.39999997615814208 -0.90000081062316896
v -0.5 -2.39999997615814208 -0.90000081062316896
v 0.5 -4.99999964237213136 0.89999955892562864
v 0.5 -4.99999964237213136 0.89999955892562864
v 0.5 -4.99999964237213136 0.89999955892562864
v 0.5 -2.39999973773956296 0.8999991416931152
v 0.5 -2.39999973773956296 0.8999991416931152
v 0.5 -2.39999973773956296 0.8999991416931152
v 0.5 -4.9999998807907104 -0.90000039339065552
v 0.5 -4.9999998807907104 -0.90000039339065552
v 0.5 -4.9999998807907104 -0.90000039339065552
v 0.5 -2.39999997615814208 -0.90000081062316896
v 0.5 -2.39999997615814208 -0.90000081062316896
v 0.5 -2.39999997615814208 -0.90000081062316896
# 24 vertices

vn -1 1.1698336251884052E-35 7.180387435613707E-29
vn 0 -1 1.6292067073209182E-07
vn 0 1.6292067073209182E-07 1
vn -1 1.1698336251884052E-35 7.180387435613707E-29
vn 0 1.6292067073209182E-07 1
vn 0 1 -1.6292067073209182E-07
vn -1 1.1698336251884052E-35 7.180387435613707E-29
vn 0 -1 1.6292067073209182E-07
vn 0 -1.6292067073209182E-07 -1
vn -1 1.1698336251884052E-35 7.180387435613707E-29
vn 0 -1.6292067073209182E-07 -1
vn 0 1 -1.6292067073209182E-07
vn 0 -1 1.6292067073209182E-07
vn 0 1.6292067073209182E-07 1
vn 1 -1.1698336251884052E-35 -7.180387435613707E-29
vn 0 1.6292067073209182E-07 1
vn 0 1 -1.6292067073209182E-07
vn 1 -1.1698336251884052E-35 -7.180387435613707E-29
vn 0 -1 1.6292067073209182E-07
vn 0 -1.6292067073209182E-07 -1
vn 1 -1.1698336251884052E-35 -7.180387435613707E-29
vn 0 -1.6292067073209182E-07 -1
vn 0 1 -1.6292067073209182E-07
vn 1 -1.1698336251884052E-35 -7.180387435613707E-29
# 24 vertex normals

vt 0.625 -0.7500000596046448 0
vt 0.5625000596046448 -0.5 0
vt 0.25 -0.75 0
vt 0.625 -0.5625000596046448 0
vt 0.25 -0.5624999403953552 0
vt 0.3125 -0.5 0
vt 0.5 -0.75 0
vt 0.4375000298023224 -0.5 0
vt 0.5 -0.734375 0
vt 0.5 -0.5625 0
vt 0.5 -0.546875 0
vt 0.4375 -0.5 0
vt 0.5625 -0.5625 0
vt 0.3125 -0.75 0
vt 0.3125 -0.75 0
vt 0.3125 -0.5625 0
vt 0.3125 -0.5625 0
vt 0.3125 -0.5625 0
vt 0.4375 -0.5625 0
vt 0.4375 -0.734375 0
vt 0.4375 -0.75 0
vt 0.4375 -0.546875 0
vt 0.4375 -0.5625 0
vt 0.4375 -0.5625 0
# 24 texture coords

g BodyOut
usemtl Material.001
s 2
f 25/25/25 28/28/28 34/34/34
f 25/25/25 34/34/34 31/31/31
f 33/33/33 35/35/35 46/46/46
f 33/33/33 46/46/46 44/44/44
f 45/45/45 48/48/48 42/42/42
f 45/45/45 42/42/42 39/39/39
f 38/38/38 40/40/40 29/29/29
f 38/38/38 29/29/29 27/27/27
f 32/32/32 43/43/43 37/37/37
f 32/32/32 37/37/37 26/26/26
f 47/47/47 36/36/36 30/30/30
f 47/47/47 30/30/30 41/41/41
#12 polygons


#
# object Head
#

v 0.79999989271163936 -0.90000057220458992 -0.80000096559524544
v 0.79999989271163936 -0.90000057220458992 -0.80000096559524544
v 0.79999989271163936 -0.90000057220458992 -0.80000096559524544
v 0.79999989271163936 -2.50000035762786864 -0.80000066757202144
v 0.79999989271163936 -2.50000035762786864 -0.80000066757202144
v 0.79999989271163936 -2.50000035762786864 -0.80000066757202144
v 0.79999989271163936 -0.90000033378601072 0.79999881982803344
v 0.79999989271163936 -0.90000033378601072 0.79999881982803344
v 0.79999989271163936 -0.90000033378601072 0.79999881982803344
v 0.79999989271163936 -2.5 0.79999911785125728
v 0.79999989271163936 -2.5 0.79999911785125728
v 0.79999989271163936 -2.5 0.79999911785125728
v -0.79999989271163936 -0.90000057220458992 -0.80000096559524544
v -0.79999989271163936 -0.90000057220458992 -0.80000096559524544
v -0.79999989271163936 -0.90000057220458992 -0.80000096559524544
v -0.79999989271163936 -2.50000035762786864 -0.80000066757202144
v -0.79999989271163936 -2.50000035762786864 -0.80000066757202144
v -0.79999989271163936 -2.50000035762786864 -0.80000066757202144
v -0.79999989271163936 -0.90000033378601072 0.79999881982803344
v -0.79999989271163936 -0.90000033378601072 0.79999881982803344
v -0.79999989271163936 -0.90000033378601072 0.79999881982803344
v -0.79999989271163936 -2.5 0.79999911785125728
v -0.79999989271163936 -2.5 0.79999911785125728
v -0.79999989271163936 -2.5 0.79999911785125728
# 24 vertices

vn -4.0389687976965526E-29 -1.6292067073209182E-07 -1
vn 0 1 -1.6292067073209182E-07
vn 1 -6.580315352406652E-36 -4.0389687976965526E-29
vn -4.0389687976965526E-29 -1.6292067073209182E-07 -1
vn 0 -1 1.6292067073209182E-07
vn 1 -6.580315352406652E-36 -4.0389687976965526E-29
vn 0 1 -1.6292067073209182E-07
vn 4.0389687976965526E-29 1.6292067073209182E-07 1
vn 1 -6.580315352406652E-36 -4.0389687976965526E-29
vn 0 -1 1.6292067073209182E-07
vn 4.0389687976965526E-29 1.6292067073209182E-07 1
vn 1 -6.580315352406652E-36 -4.0389687976965526E-29
vn -1 6.580315352406652E-36 4.0389687976965526E-29
vn -4.0389687976965526E-29 -1.6292067073209182E-07 -1
vn 0 1 -1.6292067073209182E-07
vn -1 6.580315352406652E-36 4.0389687976965526E-29
vn -4.0389687976965526E-29 -1.6292067073209182E-07 -1
vn 0 -1 1.6292067073209182E-07
vn -1 6.580315352406652E-36 4.0389687976965526E-29
vn 0 1 -1.6292067073209182E-07
vn 4.0389687976965526E-29 1.6292067073209182E-07 1
vn -1 6.580315352406652E-36 4.0389687976965526E-29
vn 0 -1 1.6292067073209182E-07
vn 4.0389687976965526E-29 1.6292067073209182E-07 1
# 24 vertex normals

vt 0.25 -0.125 0
vt 0.25 -0.125 0
vt 0.25 -0.125 0
vt 0.25 -0.25 0
vt 0.25 -0.125 0
vt 0.25 -0.25 0
vt 0.125 -0.125 0
vt 0.125 -0.125 0
vt 0.125 -0.125 0
vt 0.375 -0.125 0
vt 0.125 -0.25 0
vt 0.125 -0.25 0
vt 0.375 -0.125 0
vt 0.375 -0.125 0
vt 0.25 -0 0
vt 0.375 -0.25 0
vt 0.375 -0.25 0
vt 0.25 -0 0
vt 0.5 -0.125 0
vt 0.125 -0 0
vt 0 -0.125 0
vt 0.5 -0.25 0
vt 0.375 -0 0
vt 0 -0.25 0
# 24 texture coords

g Head
usemtl Material.001
s 4
f 50/50/50 63/63/63 68/68/68
f 50/50/50 68/68/68 55/55/55
f 59/59/59 56/56/56 69/69/69
f 59/59/59 69/69/69 72/72/72
f 70/70/70 67/67/67 61/61/61
f 70/70/70 61/61/61 64/64/64
f 66/66/66 53/53/53 58/58/58
f 66/66/66 58/58/58 71/71/71
f 54/54/54 51/51/51 57/57/57
f 54/54/54 57/57/57 60/60/60
f 65/65/65 62/62/62 49/49/49
f 65/65/65 49/49/49 52/52/52
#12 polygons


#
# object HeadOut
#

v -0.89999997615814208 -2.60000014305114744 0.89999920129776
v -0.89999997615814208 -2.60000014305114744 0.89999920129776
v -0.89999997615814208 -2.60000014305114744 0.89999920129776
v -0.89999997615814208 -0.80000019073486336 0.89999890327453616
v -0.89999997615814208 -0.80000019073486336 0.89999890327453616
v -0.89999997615814208 -0.80000019073486336 0.89999890327453616
v -0.89999997615814208 -2.60000038146972656 -0.90000075101852416
v -0.89999997615814208 -2.60000038146972656 -0.90000075101852416
v -0.89999997615814208 -2.60000038146972656 -0.90000075101852416
v -0.89999997615814208 -0.8000004291534424 -0.900001049041748
v -0.89999997615814208 -0.8000004291534424 -0.900001049041748
v -0.89999997615814208 -0.8000004291534424 -0.900001049041748
v 0.89999997615814208 -2.60000014305114744 0.89999920129776
v 0.89999997615814208 -2.60000014305114744 0.89999920129776
v 0.89999997615814208 -2.60000014305114744 0.89999920129776
v 0.89999997615814208 -0.80000019073486336 0.89999890327453616
v 0.89999997615814208 -0.80000019073486336 0.89999890327453616
v 0.89999997615814208 -0.80000019073486336 0.89999890327453616
v 0.89999997615814208 -2.60000038146972656 -0.90000075101852416
v 0.89999997615814208 -2.60000038146972656 -0.90000075101852416
v 0.89999997615814208 -2.60000038146972656 -0.90000075101852416
v 0.89999997615814208 -0.8000004291534424 -0.900001049041748
v 0.89999997615814208 -0.8000004291534424 -0.900001049041748
v 0.89999997615814208 -0.8000004291534424 -0.900001049041748
# 24 vertices

vn -1 1.1698334816954425E-35 7.180387435613707E-29
vn -7.973388262008209E-43 -1 1.6292067073209182E-07
vn 7.180387435613707E-29 1.6292067073209182E-07 1
vn -1 1.1698334816954425E-35 7.180387435613707E-29
vn 7.973388262008209E-43 1 -1.6292067073209182E-07
vn 7.180387435613707E-29 1.6292067073209182E-07 1
vn -1 1.1698334816954425E-35 7.180387435613707E-29
vn -7.180387435613707E-29 -1.6292067073209182E-07 -1
vn -7.973388262008209E-43 -1 1.6292067073209182E-07
vn -1 1.1698334816954425E-35 7.180387435613707E-29
vn -7.180387435613707E-29 -1.6292067073209182E-07 -1
vn 7.973388262008209E-43 1 -1.6292067073209182E-07
vn -7.973388262008209E-43 -1 1.6292067073209182E-07
vn 7.180387435613707E-29 1.6292067073209182E-07 1
vn 1 -1.1698334816954425E-35 -7.180387435613707E-29
vn 7.973388262008209E-43 1 -1.6292067073209182E-07
vn 7.180387435613707E-29 1.6292067073209182E-07 1
vn 1 -1.1698334816954425E-35 -7.180387435613707E-29
vn -7.180387435613707E-29 -1.6292067073209182E-07 -1
vn -7.973388262008209E-43 -1 1.6292067073209182E-07
vn 1 -1.1698334816954425E-35 -7.180387435613707E-29
vn -7.180387435613707E-29 -1.6292067073209182E-07 -1
vn 7.973388262008209E-43 1 -1.6292067073209182E-07
vn 1 -1.1698334816954425E-35 -7.180387435613707E-29
# 24 vertex normals

vt 1 -0.25 0
vt 0.875 -0 0
vt 0.5 -0.25 0
vt 1 -0.125 0
vt 0.625 -0 0
vt 0.5 -0.125 0
vt 0.875 -0.25 0
vt 0.875 -0.25 0
vt 0.75 -0 0
vt 0.875 -0.125 0
vt 0.875 -0.125 0
vt 0.75 -0 0
vt 0.875 -0.125 0
vt 0.625 -0.25 0
vt 0.625 -0.25 0
vt 0.625 -0.125 0
vt 0.625 -0.125 0
vt 0.625 -0.125 0
vt 0.75 -0.25 0
vt 0.75 -0.125 0
vt 0.75 -0.25 0
vt 0.75 -0.125 0
vt 0.75 -0.125 0
vt 0.75 -0.125 0
# 24 texture coords

g HeadOut
usemtl Material.001
s 8
f 73/73/73 76/76/76 82/82/82
f 73/73/73 82/82/82 79/79/79
f 80/80/80 83/83/83 94/94/94
f 80/80/80 94/94/94 91/91/91
f 93/93/93 96/96/96 90/90/90
f 93/93/93 90/90/90 87/87/87
f 86/86/86 89/89/89 78/78/78
f 86/86/86 78/78/78 75/75/75
f 81/81/81 92/92/92 85/85/85
f 81/81/81 85/85/85 74/74/74
f 95/95/95 84/84/84 77/77/77
f 95/95/95 77/77/77 88/88/88
#12 polygons


#
# object LArm
#

v -0.39999994635581968 -4.89999985694885248 -0.8000003695487976
v -0.39999994635581968 -4.89999985694885248 -0.8000003695487976
v -0.39999994635581968 -4.89999985694885248 -0.8000003695487976
v -0.39999994635581968 -2.49999952316284176 -0.80000078678131104
v -0.39999994635581968 -2.49999952316284176 -0.80000078678131104
v -0.39999994635581968 -2.49999952316284176 -0.80000078678131104
v -0.39999994635581968 -4.89999997615814208 -1.40000045299530032
v -0.39999994635581968 -4.89999997615814208 -1.40000045299530032
v -0.39999994635581968 -4.89999997615814208 -1.40000045299530032
v -0.39999994635581968 -2.49999964237213136 -1.40000081062316896
v -0.39999994635581968 -2.49999964237213136 -1.40000081062316896
v -0.39999994635581968 -2.49999964237213136 -1.40000081062316896
v 0.39999994635581968 -4.89999985694885248 -0.8000003695487976
v 0.39999994635581968 -4.89999985694885248 -0.8000003695487976
v 0.39999994635581968 -4.89999985694885248 -0.8000003695487976
v 0.39999994635581968 -2.49999952316284176 -0.80000078678131104
v 0.39999994635581968 -2.49999952316284176 -0.80000078678131104
v 0.39999994635581968 -2.49999952316284176 -0.80000078678131104
v 0.39999994635581968 -4.89999997615814208 -1.40000045299530032
v 0.39999994635581968 -4.89999997615814208 -1.40000045299530032
v 0.39999994635581968 -4.89999997615814208 -1.40000045299530032
v 0.39999994635581968 -2.49999964237213136 -1.40000081062316896
v 0.39999994635581968 -2.49999964237213136 -1.40000081062316896
v 0.39999994635581968 -2.49999964237213136 -1.40000081062316896
# 24 vertices

vn -1 8.773750933349615E-36 5.385290727173557E-29
vn -4.792440747990874E-43 -1 1.629206565212371E-07
vn 4.0389690986231064E-29 1.629206565212371E-07 1
vn -1 8.773750933349615E-36 5.385290727173557E-29
vn 4.792440747990874E-43 1 -1.629206565212371E-07
vn 4.0389690986231064E-29 1.629206565212371E-07 1
vn -1 8.773750933349615E-36 5.385290727173557E-29
vn -4.0389690986231064E-29 -1.629206565212371E-07 -1
vn -4.792440747990874E-43 -1 1.629206565212371E-07
vn -1 8.773750933349615E-36 5.385290727173557E-29
vn -4.0389690986231064E-29 -1.629206565212371E-07 -1
vn 4.792440747990874E-43 1 -1.629206565212371E-07
vn -4.792440747990874E-43 -1 1.629206565212371E-07
vn 4.0389690986231064E-29 1.629206565212371E-07 1
vn 1 -8.773750933349615E-36 -5.385290727173557E-29
vn 4.792440747990874E-43 1 -1.629206565212371E-07
vn 4.0389690986231064E-29 1.629206565212371E-07 1
vn 1 -8.773750933349615E-36 -5.385290727173557E-29
vn -4.0389690986231064E-29 -1.629206565212371E-07 -1
vn -4.792440747990874E-43 -1 1.629206565212371E-07
vn 1 -8.773750933349615E-36 -5.385290727173557E-29
vn -4.0389690986231064E-29 -1.629206565212371E-07 -1
vn 4.792440747990874E-43 1 -1.629206565212371E-07
vn 1 -8.773750933349615E-36 -5.385290727173557E-29
# 24 vertex normals

vt 0.71875149011611936 -1 0
vt 0.65625 -0.75 0
vt 0.5 -1 0
vt 0.71875149011611936 -0.8125000596046448 0
vt 0.5625 -0.75 0
vt 0.5 -0.8124999403953552 0
vt 0.67187649011611936 -1 0
vt 0.671875 -1 0
vt 0.609375 -0.75 0
vt 0.67187649011611936 -0.8125 0
vt 0.671875 -0.8125 0
vt 0.609375 -0.75 0
vt 0.65625 -0.8125 0
vt 0.5625 -1 0
vt 0.5625 -1 0
vt 0.5625 -0.8125 0
vt 0.5625 -0.8125 0
vt 0.5625 -0.8125 0
vt 0.609375 -1 0
vt 0.609375 -0.8125 0
vt 0.609375 -1 0
vt 0.609375 -0.8125 0
vt 0.609375 -0.8125 0
vt 0.609375 -0.8125 0
# 24 texture coords

g LArm
usemtl Material.001
s 16
f 97/97/97 100/100/100 106/106/106
f 97/97/97 106/106/106 103/103/103
f 104/104/104 107/107/107 118/118/118
f 104/104/104 118/118/118 115/115/115
f 117/117/117 120/120/120 114/114/114
f 117/117/117 114/114/114 111/111/111
f 110/110/110 113/113/113 102/102/102
f 110/110/110 102/102/102 99/99/99
f 105/105/105 116/116/116 109/109/109
f 105/105/105 109/109/109 98/98/98
f 119/119/119 108/108/108 101/101/101
f 119/119/119 101/101/101 112/112/112
#12 polygons


#
# object LArmOut
#

v -0.5 -4.9999998807907104 -0.70000034570693968
v -0.5 -4.9999998807907104 -0.70000034570693968
v -0.5 -4.9999998807907104 -0.70000034570693968
v -0.5 -2.39999997615814208 -0.70000076293945312
v -0.5 -2.39999997615814208 -0.70000076293945312
v -0.5 -2.39999997615814208 -0.70000076293945312
v -0.5 -5 -1.50000023841857912
v -0.5 -5 -1.50000023841857912
v -0.5 -5 -1.50000023841857912
v -0.5 -2.40000009536743168 -1.50000071525573728
v -0.5 -2.40000009536743168 -1.50000071525573728
v -0.5 -2.40000009536743168 -1.50000071525573728
v 0.5 -4.9999998807907104 -0.70000034570693968
v 0.5 -4.9999998807907104 -0.70000034570693968
v 0.5 -4.9999998807907104 -0.70000034570693968
v 0.5 -2.39999997615814208 -0.70000076293945312
v 0.5 -2.39999997615814208 -0.70000076293945312
v 0.5 -2.39999997615814208 -0.70000076293945312
v 0.5 -5 -1.50000023841857912
v 0.5 -5 -1.50000023841857912
v 0.5 -5 -1.50000023841857912
v 0.5 -2.40000009536743168 -1.50000071525573728
v 0.5 -2.40000009536743168 -1.50000071525573728
v 0.5 -2.40000009536743168 -1.50000071525573728
# 24 vertices

vn -1 6.580314634941839E-36 4.038968496769999E-29
vn 0 -1 1.6292067073209182E-07
vn 0 1.6292067073209182E-07 1
vn -1 6.580314634941839E-36 4.038968496769999E-29
vn 0 1.6292067073209182E-07 1
vn 0 1 -1.6292067073209182E-07
vn -1 6.580314634941839E-36 4.038968496769999E-29
vn 0 -1 1.6292067073209182E-07
vn 0 -1.6292067073209182E-07 -1
vn -1 6.580314634941839E-36 4.038968496769999E-29
vn 0 -1.6292067073209182E-07 -1
vn 0 1 -1.6292067073209182E-07
vn 0 -1 1.6292067073209182E-07
vn 0 1.6292067073209182E-07 1
vn 1 -6.580314634941839E-36 -4.038968496769999E-29
vn 0 1.6292067073209182E-07 1
vn 0 1 -1.6292067073209182E-07
vn 1 -6.580314634941839E-36 -4.038968496769999E-29
vn 0 -1 1.6292067073209182E-07
vn 0 -1.6292067073209182E-07 -1
vn 1 -6.580314634941839E-36 -4.038968496769999E-29
vn 0 -1.6292067073209182E-07 -1
vn 0 1 -1.6292067073209182E-07
vn 1 -6.580314634941839E-36 -4.038968496769999E-29
# 24 vertex normals

vt 0.96875 -1 0
vt 0.90625 -0.75 0
vt 0.75 -1 0
vt 0.96875 -0.8125000596046448 0
vt 0.75 -0.8124999403953552 0
vt 0.8125 -0.75 0
vt 0.921875 -1 0
vt 0.859375 -0.75 0
vt 0.921875 -1 0
vt 0.921875 -0.8125 0
vt 0.921875 -0.8125 0
vt 0.859375 -0.75 0
vt 0.90625 -0.8125 0
vt 0.8125 -1 0
vt 0.8125 -1 0
vt 0.8125 -0.8125 0
vt 0.8125 -0.8125 0
vt 0.8125 -0.8125 0
vt 0.859375 -0.8125 0
vt 0.859375 -1 0
vt 0.859375 -1 0
vt 0.859375 -0.8125 0
vt 0.859375 -0.8125 0
vt 0.859375 -0.8125 0
# 24 texture coords

g LArmOut
usemtl Material.001
s 32
f 121/121/121 124/124/124 130/130/130
f 121/121/121 130/130/130 127/127/127
f 129/129/129 131/131/131 142/142/142
f 129/129/129 142/142/142 140/140/140
f 141/141/141 144/144/144 138/138/138
f 141/141/141 138/138/138 135/135/135
f 134/134/134 136/136/136 125/125/125
f 134/134/134 125/125/125 123/123/123
f 128/128/128 139/139/139 133/133/133
f 128/128/128 133/133/133 122/122/122
f 143/143/143 132/132/132 126/126/126
f 143/143/143 126/126/126 137/137/137
#12 polygons


#
# object LLeg
#

v -0.39999991655349728 -7.29999947547912596 1.6690876236680197E-08
v -0.39999991655349728 -7.29999947547912596 1.6690876236680197E-08
v -0.39999991655349728 -7.29999947547912596 1.6690876236680197E-08
v -0.39999991655349728 -4.8999992609024048 -3.7431874488902395E-07
v -0.39999991655349728 -4.8999992609024048 -3.7431874488902395E-07
v -0.39999991655349728 -4.8999992609024048 -3.7431874488902395E-07
v -0.39999991655349728 -7.29999947547912596 -0.79999983310699456
v -0.39999991655349728 -7.29999947547912596 -0.79999983310699456
v -0.39999991655349728 -7.29999947547912596 -0.79999983310699456
v -0.39999991655349728 -4.89999949932098384 -0.80000019073486336
v -0.39999991655349728 -4.89999949932098384 -0.80000019073486336
v -0.39999991655349728 -4.89999949932098384 -0.80000019073486336
v 0.39999991655349728 -7.29999947547912596 1.6690876236680197E-08
v 0.39999991655349728 -7.29999947547912596 1.6690876236680197E-08
v 0.39999991655349728 -7.29999947547912596 1.6690876236680197E-08
v 0.39999991655349728 -4.8999992609024048 -3.7431874488902395E-07
v 0.39999991655349728 -4.8999992609024048 -3.7431874488902395E-07
v 0.39999991655349728 -4.8999992609024048 -3.7431874488902395E-07
v 0.39999991655349728 -7.29999947547912596 -0.79999983310699456
v 0.39999991655349728 -7.29999947547912596 -0.79999983310699456
v 0.39999991655349728 -7.29999947547912596 -0.79999983310699456
v 0.39999991655349728 -4.89999949932098384 -0.80000019073486336
v 0.39999991655349728 -4.89999949932098384 -0.80000019073486336
v 0.39999991655349728 -4.89999949932098384 -0.80000019073486336
# 24 vertices

vn -1 6.580314634941839E-36 4.038968496769999E-29
vn 7.174648137343064E-43 -1 1.6292068494294654E-07
vn 4.038968496769999E-29 1.6292067073209182E-07 1
vn -1 6.580314634941839E-36 4.038968496769999E-29
vn -7.174648137343064E-43 1 -1.6292068494294654E-07
vn 4.038968496769999E-29 1.6292067073209182E-07 1
vn -1 6.580314634941839E-36 4.038968496769999E-29
vn -4.038968496769999E-29 -1.6292067073209182E-07 -1
vn 7.174648137343064E-43 -1 1.6292068494294654E-07
vn -1 6.580314634941839E-36 4.038968496769999E-29
vn -4.038968496769999E-29 -1.6292067073209182E-07 -1
vn -7.174648137343064E-43 1 -1.6292068494294654E-07
vn 7.174648137343064E-43 -1 1.6292068494294654E-07
vn 4.038968496769999E-29 1.6292067073209182E-07 1
vn 1 -6.580314634941839E-36 -4.038968496769999E-29
vn -7.174648137343064E-43 1 -1.6292068494294654E-07
vn 4.038968496769999E-29 1.6292067073209182E-07 1
vn 1 -6.580314634941839E-36 -4.038968496769999E-29
vn -4.038968496769999E-29 -1.6292067073209182E-07 -1
vn 7.174648137343064E-43 -1 1.6292068494294654E-07
vn 1 -6.580314634941839E-36 -4.038968496769999E-29
vn -4.038968496769999E-29 -1.6292067073209182E-07 -1
vn -7.174648137343064E-43 1 -1.6292068494294654E-07
vn 1 -6.580314634941839E-36 -4.038968496769999E-29
# 24 vertex normals

vt 0.5 -1 0
vt 0.4375 -0.75 0
vt 0.25 -1 0
vt 0.5 -0.8125000596046448 0
vt 0.3125 -0.75 0
vt 0.25 -0.8124999403953552 0
vt 0.4375 -1 0
vt 0.4375 -1 0
vt 0.375 -0.75 0
vt 0.4375 -0.8125 0
vt 0.4375 -0.8125 0
vt 0.375 -0.75 0
vt 0.4375 -0.8125 0
vt 0.3125 -1 0
vt 0.3125 -1 0
vt 0.3125 -0.8125 0
vt 0.3125 -0.8125 0
vt 0.3125 -0.8125 0
vt 0.375 -1 0
vt 0.375 -0.8125 0
vt 0.375 -1 0
vt 0.375 -0.8125 0
vt 0.375 -0.8125 0
vt 0.375 -0.8125 0
# 24 texture coords

g LLeg
usemtl Material.001
s 64
f 145/145/145 148/148/148 154/154/154
f 145/145/145 154/154/154 151/151/151
f 152/152/152 155/155/155 166/166/166
f 152/152/152 166/166/166 163/163/163
f 165/165/165 168/168/168 162/162/162
f 165/165/165 162/162/162 159/159/159
f 158/158/158 161/161/161 150/150/150
f 158/158/158 150/150/150 147/147/147
f 153/153/153 164/164/164 157/157/157
f 153/153/153 157/157/157 146/146/146
f 167/167/167 156/156/156 149/149/149
f 167/167/167 149/149/149 160/160/160
#12 polygons


#
# object LLegOut
#

v -0.5 -7.39999938011169432 0.10000008344650268
v -0.5 -7.39999938011169432 0.10000008344650268
v -0.5 -7.39999938011169432 0.10000008344650268
v -0.5 -4.79999935626983648 0.09999966621398926
v -0.5 -4.79999935626983648 0.09999966621398926
v -0.5 -4.79999935626983648 0.09999966621398926
v -0.5 -7.39999938011169432 -0.89999991655349728
v -0.5 -7.39999938011169432 -0.89999991655349728
v -0.5 -7.39999938011169432 -0.89999991655349728
v -0.5 -4.79999959468841552 -0.90000033378601072
v -0.5 -4.79999959468841552 -0.90000033378601072
v -0.5 -4.79999959468841552 -0.90000033378601072
v 0.5 -7.39999938011169432 0.10000008344650268
v 0.5 -7.39999938011169432 0.10000008344650268
v 0.5 -7.39999938011169432 0.10000008344650268
v 0.5 -4.79999935626983648 0.09999966621398926
v 0.5 -4.79999935626983648 0.09999966621398926
v 0.5 -4.79999935626983648 0.09999966621398926
v 0.5 -7.39999938011169432 -0.89999991655349728
v 0.5 -7.39999938011169432 -0.89999991655349728
v 0.5 -7.39999938011169432 -0.89999991655349728
v 0.5 -4.79999959468841552 -0.90000033378601072
v 0.5 -4.79999959468841552 -0.90000033378601072
v 0.5 -4.79999959468841552 -0.90000033378601072
# 24 vertices

vn -1 0 0
vn 0 -1 1.6292067073209182E-07
vn 0 1.6292068494294654E-07 1
vn -1 0 0
vn 0 1.6292068494294654E-07 1
vn 0 1 -1.6292067073209182E-07
vn -1 0 0
vn 0 -1 1.6292067073209182E-07
vn 0 -1.6292068494294654E-07 -1
vn -1 0 0
vn 0 -1.6292068494294654E-07 -1
vn 0 1 -1.6292067073209182E-07
vn 0 -1 1.6292067073209182E-07
vn 0 1.6292068494294654E-07 1
vn 1 0 0
vn 0 1.6292068494294654E-07 1
vn 0 1 -1.6292067073209182E-07
vn 1 0 0
vn 0 -1 1.6292067073209182E-07
vn 0 -1.6292068494294654E-07 -1
vn 1 0 0
vn 0 -1.6292068494294654E-07 -1
vn 0 1 -1.6292067073209182E-07
vn 1 0 0
# 24 vertex normals

vt 0.25 -1 0
vt 0.1875 -0.75 0
vt 0 -1 0
vt 0.25 -0.8125000596046448 0
vt 0 -0.8124999403953552 0
vt 0.0625 -0.75 0
vt 0.1875 -1 0
vt 0.125 -0.75 0
vt 0.1875 -1 0
vt 0.1875 -0.8125 0
vt 0.1875 -0.8125 0
vt 0.125 -0.75 0
vt 0.1875 -0.8125 0
vt 0.0625 -1 0
vt 0.0625 -1 0
vt 0.0625 -0.8125 0
vt 0.0625 -0.8125 0
vt 0.0625 -0.8125 0
vt 0.125 -0.8125 0
vt 0.125 -1 0
vt 0.125 -1 0
vt 0.125 -0.8125 0
vt 0.125 -0.8125 0
vt 0.125 -0.8125 0
# 24 texture coords

g LLegOut
usemtl Material.001
s 128
f 169/169/169 172/172/172 178/178/178
f 169/169/169 178/178/178 175/175/175
f 177/177/177 179/179/179 190/190/190
f 177/177/177 190/190/190 188/188/188
f 189/189/189 192/192/192 186/186/186
f 189/189/189 186/186/186 183/183/183
f 182/182/182 184/184/184 173/173/173
f 182/182/182 173/173/173 171/171/171
f 176/176/176 187/187/187 181/181/181
f 176/176/176 181/181/181 170/170/170
f 191/191/191 180/180/180 174/174/174
f 191/191/191 174/174/174 185/185/185
#12 polygons


#
# object RArm
#

v -0.39999994635581968 -4.89999949932098384 1.39999961853027344
v -0.39999994635581968 -4.89999949932098384 1.39999961853027344
v -0.39999994635581968 -4.89999949932098384 1.39999961853027344
v -0.39999994635581968 -2.49999916553497312 1.3999992609024048
v -0.39999994635581968 -2.49999916553497312 1.3999992609024048
v -0.39999994635581968 -2.49999916553497312 1.3999992609024048
v -0.39999994635581968 -4.89999961853027344 0.79999959468841552
v -0.39999994635581968 -4.89999961853027344 0.79999959468841552
v -0.39999994635581968 -4.89999961853027344 0.79999959468841552
v -0.39999994635581968 -2.49999928474426272 0.79999917745590208
v -0.39999994635581968 -2.49999928474426272 0.79999917745590208
v -0.39999994635581968 -2.49999928474426272 0.79999917745590208
v 0.39999994635581968 -4.89999949932098384 1.39999961853027344
v 0.39999994635581968 -4.89999949932098384 1.39999961853027344
v 0.39999994635581968 -4.89999949932098384 1.39999961853027344
v 0.39999994635581968 -2.49999916553497312 1.3999992609024048
v 0.39999994635581968 -2.49999916553497312 1.3999992609024048
v 0.39999994635581968 -2.49999916553497312 1.3999992609024048
v 0.39999994635581968 -4.89999961853027344 0.79999959468841552
v 0.39999994635581968 -4.89999961853027344 0.79999959468841552
v 0.39999994635581968 -4.89999961853027344 0.79999959468841552
v 0.39999994635581968 -2.49999928474426272 0.79999917745590208
v 0.39999994635581968 -2.49999928474426272 0.79999917745590208
v 0.39999994635581968 -2.49999928474426272 0.79999917745590208
# 24 vertices

vn -1 8.773750933349615E-36 5.385290727173557E-29
vn -4.792440747990874E-43 -1 1.629206565212371E-07
vn 4.0389690986231064E-29 1.629206565212371E-07 1
vn -1 8.773750933349615E-36 5.385290727173557E-29
vn 4.792440747990874E-43 1 -1.629206565212371E-07
vn 4.0389690986231064E-29 1.629206565212371E-07 1
vn -1 8.773750933349615E-36 5.385290727173557E-29
vn -4.0389690986231064E-29 -1.629206565212371E-07 -1
vn -4.792440747990874E-43 -1 1.629206565212371E-07
vn -1 8.773750933349615E-36 5.385290727173557E-29
vn -4.0389690986231064E-29 -1.629206565212371E-07 -1
vn 4.792440747990874E-43 1 -1.629206565212371E-07
vn -4.792440747990874E-43 -1 1.629206565212371E-07
vn 4.0389690986231064E-29 1.629206565212371E-07 1
vn 1 -8.773750933349615E-36 -5.385290727173557E-29
vn 4.792440747990874E-43 1 -1.629206565212371E-07
vn 4.0389690986231064E-29 1.629206565212371E-07 1
vn 1 -8.773750933349615E-36 -5.385290727173557E-29
vn -4.0389690986231064E-29 -1.629206565212371E-07 -1
vn -4.792440747990874E-43 -1 1.629206565212371E-07
vn 1 -8.773750933349615E-36 -5.385290727173557E-29
vn -4.0389690986231064E-29 -1.629206565212371E-07 -1
vn 4.792440747990874E-43 1 -1.629206565212371E-07
vn 1 -8.773750933349615E-36 -5.385290727173557E-29
# 24 vertex normals

vt 0.84375 -0.5000000596046448 0
vt 0.78125 -0.25 0
vt 0.625 -0.5 0
vt 0.84375 -0.31250005960464476 0
vt 0.6875 -0.25 0
vt 0.625 -0.31249994039535524 0
vt 0.796875 -0.5 0
vt 0.796875 -0.5 0
vt 0.734375 -0.25 0
vt 0.796875 -0.3125 0
vt 0.796875 -0.3125 0
vt 0.734375 -0.25 0
vt 0.78125 -0.3125 0
vt 0.6875 -0.5 0
vt 0.6875 -0.5 0
vt 0.6875 -0.3125 0
vt 0.6875 -0.3125 0
vt 0.6875 -0.3125 0
vt 0.734375 -0.5 0
vt 0.734375 -0.3125 0
vt 0.734375 -0.5 0
vt 0.734375 -0.3125 0
vt 0.734375 -0.3125 0
vt 0.734375 -0.3125 0
# 24 texture coords

g RArm
usemtl Material.001
s 256
f 193/193/193 196/196/196 202/202/202
f 193/193/193 202/202/202 199/199/199
f 200/200/200 203/203/203 214/214/214
f 200/200/200 214/214/214 211/211/211
f 213/213/213 216/216/216 210/210/210
f 213/213/213 210/210/210 207/207/207
f 206/206/206 209/209/209 198/198/198
f 206/206/206 198/198/198 195/195/195
f 201/201/201 212/212/212 205/205/205
f 201/201/201 205/205/205 194/194/194
f 215/215/215 204/204/204 197/197/197
f 215/215/215 197/197/197 208/208/208
#12 polygons


#
# object RArmOut
#

v -0.5 -4.99999952316284176 1.49999952316284176
v -0.5 -4.99999952316284176 1.49999952316284176
v -0.5 -4.99999952316284176 1.49999952316284176
v -0.5 -2.39999961853027344 1.4999990463256836
v -0.5 -2.39999961853027344 1.4999990463256836
v -0.5 -2.39999961853027344 1.4999990463256836
v -0.5 -4.99999964237213136 0.6999995708465576
v -0.5 -4.99999964237213136 0.6999995708465576
v -0.5 -4.99999964237213136 0.6999995708465576
v -0.5 -2.39999973773956296 0.69999915361404416
v -0.5 -2.39999973773956296 0.69999915361404416
v -0.5 -2.39999973773956296 0.69999915361404416
v 0.5 -4.99999952316284176 1.49999952316284176
v 0.5 -4.99999952316284176 1.49999952316284176
v 0.5 -4.99999952316284176 1.49999952316284176
v 0.5 -2.39999961853027344 1.4999990463256836
v 0.5 -2.39999961853027344 1.4999990463256836
v 0.5 -2.39999961853027344 1.4999990463256836
v 0.5 -4.99999964237213136 0.6999995708465576
v 0.5 -4.99999964237213136 0.6999995708465576
v 0.5 -4.99999964237213136 0.6999995708465576
v 0.5 -2.39999973773956296 0.69999915361404416
v 0.5 -2.39999973773956296 0.69999915361404416
v 0.5 -2.39999973773956296 0.69999915361404416
# 24 vertices

vn -1 6.580314634941839E-36 4.038968496769999E-29
vn 0 -1 1.6292067073209182E-07
vn 0 1.6292067073209182E-07 1
vn -1 6.580314634941839E-36 4.038968496769999E-29
vn 0 1.6292067073209182E-07 1
vn 0 1 -1.6292067073209182E-07
vn -1 6.580314634941839E-36 4.038968496769999E-29
vn 0 -1 1.6292067073209182E-07
vn 0 -1.6292067073209182E-07 -1
vn -1 6.580314634941839E-36 4.038968496769999E-29
vn 0 -1.6292067073209182E-07 -1
vn 0 1 -1.6292067073209182E-07
vn 0 -1 1.6292067073209182E-07
vn 0 1.6292067073209182E-07 1
vn 1 -6.580314634941839E-36 -4.038968496769999E-29
vn 0 1.6292067073209182E-07 1
vn 0 1 -1.6292067073209182E-07
vn 1 -6.580314634941839E-36 -4.038968496769999E-29
vn 0 -1 1.6292067073209182E-07
vn 0 -1.6292067073209182E-07 -1
vn 1 -6.580314634941839E-36 -4.038968496769999E-29
vn 0 -1.6292067073209182E-07 -1
vn 0 1 -1.6292067073209182E-07
vn 1 -6.580314634941839E-36 -4.038968496769999E-29
# 24 vertex normals

vt 0.84375 -0.7500000596046448 0
vt 0.78125 -0.5 0
vt 0.625 -0.75 0
vt 0.84375 -0.5625000596046448 0
vt 0.625 -0.5624999403953552 0
vt 0.6875 -0.5 0
vt 0.796875 -0.75 0
vt 0.734375 -0.5 0
vt 0.796875 -0.75 0
vt 0.796875 -0.5625 0
vt 0.796875 -0.5625 0
vt 0.734375 -0.5 0
vt 0.78125 -0.5625 0
vt 0.6875 -0.75 0
vt 0.6875 -0.75 0
vt 0.6875 -0.5625 0
vt 0.6875 -0.5625 0
vt 0.6875 -0.5625 0
vt 0.734375 -0.5625 0
vt 0.734375 -0.75 0
vt 0.734375 -0.75 0
vt 0.734375 -0.5625 0
vt 0.734375 -0.5625 0
vt 0.734375 -0.5625 0
# 24 texture coords

g RArmOut
usemtl Material.001
s 512
f 217/217/217 220/220/220 226/226/226
f 217/217/217 226/226/226 223/223/223
f 225/225/225 227/227/227 238/238/238
f 225/225/225 238/238/238 236/236/236
f 237/237/237 240/240/240 234/234/234
f 237/237/237 234/234/234 231/231/231
f 230/230/230 232/232/232 221/221/221
f 230/230/230 221/221/221 219/219/219
f 224/224/224 235/235/235 229/229/229
f 224/224/224 229/229/229 218/218/218
f 239/239/239 228/228/228 222/222/222
f 239/239/239 222/222/222 233/233/233
#12 polygons


#
# object RLeg
#

v -0.39999991655349728 -7.29999995231628416 0.79999983310699456
v -0.39999991655349728 -7.29999995231628416 0.79999983310699456
v -0.39999991655349728 -7.29999995231628416 0.79999983310699456
v -0.39999991655349728 -4.89999973773956304 0.79999947547912592
v -0.39999991655349728 -4.89999973773956304 0.79999947547912592
v -0.39999991655349728 -4.89999973773956304 0.79999947547912592
v -0.39999991655349728 -7.29999995231628416 1.6690876236680197E-08
v -0.39999991655349728 -7.29999995231628416 1.6690876236680197E-08
v -0.39999991655349728 -7.29999995231628416 1.6690876236680197E-08
v -0.39999991655349728 -4.89999997615814208 -3.7431874488902395E-07
v -0.39999991655349728 -4.89999997615814208 -3.7431874488902395E-07
v -0.39999991655349728 -4.89999997615814208 -3.7431874488902395E-07
v 0.39999991655349728 -7.29999995231628416 0.79999983310699456
v 0.39999991655349728 -7.29999995231628416 0.79999983310699456
v 0.39999991655349728 -7.29999995231628416 0.79999983310699456
v 0.39999991655349728 -4.89999973773956304 0.79999947547912592
v 0.39999991655349728 -4.89999973773956304 0.79999947547912592
v 0.39999991655349728 -4.89999973773956304 0.79999947547912592
v 0.39999991655349728 -7.29999995231628416 1.6690876236680197E-08
v 0.39999991655349728 -7.29999995231628416 1.6690876236680197E-08
v 0.39999991655349728 -7.29999995231628416 1.6690876236680197E-08
v 0.39999991655349728 -4.89999997615814208 -3.7431874488902395E-07
v 0.39999991655349728 -4.89999997615814208 -3.7431874488902395E-07
v 0.39999991655349728 -4.89999997615814208 -3.7431874488902395E-07
# 24 vertices

vn -1 6.580314634941839E-36 4.038968496769999E-29
vn 7.174648137343064E-43 -1 1.6292068494294654E-07
vn 4.038968496769999E-29 1.6292067073209182E-07 1
vn -1 6.580314634941839E-36 4.038968496769999E-29
vn -7.174648137343064E-43 1 -1.6292068494294654E-07
vn 4.038968496769999E-29 1.6292067073209182E-07 1
vn -1 6.580314634941839E-36 4.038968496769999E-29
vn -4.038968496769999E-29 -1.6292067073209182E-07 -1
vn 7.174648137343064E-43 -1 1.6292068494294654E-07
vn -1 6.580314634941839E-36 4.038968496769999E-29
vn -4.038968496769999E-29 -1.6292067073209182E-07 -1
vn -7.174648137343064E-43 1 -1.6292068494294654E-07
vn 7.174648137343064E-43 -1 1.6292068494294654E-07
vn 4.038968496769999E-29 1.6292067073209182E-07 1
vn 1 -6.580314634941839E-36 -4.038968496769999E-29
vn -7.174648137343064E-43 1 -1.6292068494294654E-07
vn 4.038968496769999E-29 1.6292067073209182E-07 1
vn 1 -6.580314634941839E-36 -4.038968496769999E-29
vn -4.038968496769999E-29 -1.6292067073209182E-07 -1
vn 7.174648137343064E-43 -1 1.6292068494294654E-07
vn 1 -6.580314634941839E-36 -4.038968496769999E-29
vn -4.038968496769999E-29 -1.6292067073209182E-07 -1
vn -7.174648137343064E-43 1 -1.6292068494294654E-07
vn 1 -6.580314634941839E-36 -4.038968496769999E-29
# 24 vertex normals

vt 0.25 -0.5000000596046448 0
vt 0.1875 -0.25 0
vt 0 -0.5 0
vt 0.25 -0.31250005960464476 0
vt 0.0625 -0.25 0
vt 0 -0.31249994039535524 0
vt 0.1875 -0.5 0
vt 0.1875 -0.5 0
vt 0.125 -0.25 0
vt 0.1875 -0.3125 0
vt 0.1875 -0.3125 0
vt 0.125 -0.25 0
vt 0.1875 -0.3125 0
vt 0.0625 -0.5 0
vt 0.0625 -0.5 0
vt 0.0625 -0.3125 0
vt 0.0625 -0.3125 0
vt 0.0625 -0.3125 0
vt 0.125 -0.5 0
vt 0.125 -0.3125 0
vt 0.125 -0.5 0
vt 0.125 -0.3125 0
vt 0.125 -0.3125 0
vt 0.125 -0.3125 0
# 24 texture coords

g RLeg
usemtl Material.001
s 1024
f 241/241/241 244/244/244 250/250/250
f 241/241/241 250/250/250 247/247/247
f 248/248/248 251/251/251 262/262/262
f 248/248/248 262/262/262 259/259/259
f 261/261/261 264/264/264 258/258/258
f 261/261/261 258/258/258 255/255/255
f 254/254/254 257/257/257 246/246/246
f 254/254/254 246/246/246 243/243/243
f 249/249/249 260/260/260 253/253/253
f 249/249/249 253/253/253 242/242/242
f 263/263/263 252/252/252 245/245/245
f 263/263/263 245/245/245 256/256/256
#12 polygons


#
# object RLegOut
#

v -0.5 -7.39999985694885256 0.89999997615814208
v -0.5 -7.39999985694885256 0.89999997615814208
v -0.5 -7.39999985694885256 0.89999997615814208
v -0.5 -4.79999983310699456 0.89999949932098384
v -0.5 -4.79999983310699456 0.89999949932098384
v -0.5 -4.79999983310699456 0.89999949932098384
v -0.5 -7.39999985694885256 -0.1000000536441803
v -0.5 -7.39999985694885256 -0.1000000536441803
v -0.5 -7.39999985694885256 -0.1000000536441803
v -0.5 -4.80000007152557376 -0.10000047087669372
v -0.5 -4.80000007152557376 -0.10000047087669372
v -0.5 -4.80000007152557376 -0.10000047087669372
v 0.5 -7.39999985694885256 0.89999997615814208
v 0.5 -7.39999985694885256 0.89999997615814208
v 0.5 -7.39999985694885256 0.89999997615814208
v 0.5 -4.79999983310699456 0.89999949932098384
v 0.5 -4.79999983310699456 0.89999949932098384
v 0.5 -4.79999983310699456 0.89999949932098384
v 0.5 -7.39999985694885256 -0.1000000536441803
v 0.5 -7.39999985694885256 -0.1000000536441803
v 0.5 -7.39999985694885256 -0.1000000536441803
v 0.5 -4.80000007152557376 -0.10000047087669372
v 0.5 -4.80000007152557376 -0.10000047087669372
v 0.5 -4.80000007152557376 -0.10000047087669372
# 24 vertices

vn -1 0 0
vn 0 -1 1.6292067073209182E-07
vn 0 1.6292068494294654E-07 1
vn -1 0 0
vn 0 1.6292068494294654E-07 1
vn 0 1 -1.6292067073209182E-07
vn -1 0 0
vn 0 -1 1.6292067073209182E-07
vn 0 -1.6292068494294654E-07 -1
vn -1 0 0
vn 0 -1.6292068494294654E-07 -1
vn 0 1 -1.6292067073209182E-07
vn 0 -1 1.6292067073209182E-07
vn 0 1.6292068494294654E-07 1
vn 1 0 0
vn 0 1.6292068494294654E-07 1
vn 0 1 -1.6292067073209182E-07
vn 1 0 0
vn 0 -1 1.6292067073209182E-07
vn 0 -1.6292068494294654E-07 -1
vn 1 0 0
vn 0 -1.6292068494294654E-07 -1
vn 0 1 -1.6292067073209182E-07
vn 1 0 0
# 24 vertex normals

vt 0.25 -0.7500000596046448 0
vt 0.1875 -0.5 0
vt 0 -0.75 0
vt 0.25 -0.5625000596046448 0
vt 0 -0.5624999403953552 0
vt 0.0625 -0.5 0
vt 0.1875 -0.75 0
vt 0.125 -0.5 0
vt 0.1875 -0.75 0
vt 0.1875 -0.5625 0
vt 0.1875 -0.5625 0
vt 0.125 -0.5 0
vt 0.1875 -0.5625 0
vt 0.0625 -0.75 0
vt 0.0625 -0.75 0
vt 0.0625 -0.5625 0
vt 0.0625 -0.5625 0
vt 0.0625 -0.5625 0
vt 0.125 -0.5625 0
vt 0.125 -0.75 0
vt 0.125 -0.75 0
vt 0.125 -0.5625 0
vt 0.125 -0.5625 0
vt 0.125 -0.5625 0
# 24 texture coords

g RLegOut
usemtl Material.001
s 2048
f 265/265/265 268/268/268 274/274/274
f 265/265/265 274/274/274 271/271/271
f 273/273/273 275/275/275 286/286/286
f 273/273/273 286/286/286 284/284/284
f 285/285/285 288/288/288 282/282/282
f 285/285/285 282/282/282 279/279/279
f 278/278/278 280/280/280 269/269/269
f 278/278/278 269/269/269 267/267/267
f 272/272/272 283/283/283 277/277/277
f 272/272/272 277/277/277 266/266/266
f 287/287/287 276/276/276 270/270/270
f 287/287/287 270/270/270 281/281/281
#12 polygons

