# Aspose.3D Wavefront OBJ Exporter
# Copyright 2004-2023 Aspose Pty Ltd.
# File created: 03/15/2023 16:33:21

mtllib material.lib

#
# object Body
#

v -0.39999991655349728 -4.89999985694885248 0.79999983310699456
v -0.39999991655349728 -4.89999985694885248 0.79999983310699456
v -0.39999991655349728 -4.89999985694885248 0.79999983310699456
v -0.39999991655349728 -2.49999952316284176 0.79999983310699456
v -0.39999991655349728 -2.49999952316284176 0.79999983310699456
v -0.39999991655349728 -2.49999952316284176 0.79999983310699456
v -0.39999991655349728 -2.49999952316284176 0.79999983310699456
v -0.39999991655349728 -4.89999985694885248 -0.79999983310699456
v -0.39999991655349728 -4.89999985694885248 -0.79999983310699456
v -0.39999991655349728 -4.89999985694885248 -0.79999983310699456
v -0.39999991655349728 -2.49999952316284176 -0.79999983310699456
v -0.39999991655349728 -2.49999952316284176 -0.79999983310699456
v -0.39999991655349728 -2.49999952316284176 -0.79999983310699456
v 0.39999991655349728 -4.89999985694885248 0.79999983310699456
v 0.39999991655349728 -4.89999985694885248 0.79999983310699456
v 0.39999991655349728 -4.89999985694885248 0.79999983310699456
v 0.39999991655349728 -2.5 0.79999983310699456
v 0.39999991655349728 -2.5 0.79999983310699456
v 0.39999991655349728 -2.5 0.79999983310699456
v 0.39999991655349728 -2.5 0.79999983310699456
v 0.39999991655349728 -4.89999985694885248 -0.79999983310699456
v 0.39999991655349728 -4.89999985694885248 -0.79999983310699456
v 0.39999991655349728 -4.89999985694885248 -0.79999983310699456
v 0.39999991655349728 -4.89999985694885248 -0.79999983310699456
v 0.39999991655349728 -2.49999952316284176 -0.79999983310699456
v 0.39999991655349728 -2.49999952316284176 -0.79999983310699456
v 0.39999991655349728 -2.49999952316284176 -0.79999983310699456
v 0.39999991655349728 -2.49999952316284176 -0.79999983310699456
# 28 vertices

vn -1 0 0
vn 0 -1 0
vn 0 0 1
vn -1 0 0
vn 0 1 0
vn 1.4901166878189542E-06 1 2.98023280720372E-07
vn 0 0 1
vn -1 0 0
vn 0 0 -1
vn 0 -1 0
vn -1 0 0
vn 0 0 -1
vn 0 1 0
vn 0 -1 0
vn 0 0 1
vn 1 0 0
vn 1.4901166878189542E-06 1 2.98023280720372E-07
vn 0 0 1
vn 1 0 -6.208799696594269E-09
vn 1 0 0
vn 0 0 -1
vn 0 -1 0
vn 1 0 -6.208799696594269E-09
vn 1 0 0
vn 0 0 -1
vn 0 1 0
vn 1.4901166878189542E-06 1 2.98023280720372E-07
vn 1 0 -6.208799696594269E-09
# 28 vertex normals

vt 0.625 -0.5000000596046448 0
vt 0.5625 -0.25 0
vt 0.25 -0.5 0
vt 0.625 -0.31250005960464476 0
vt 0.3125 -0.25 0
vt 0.3125 -0.25 0
vt 0.25 -0.31249994039535524 0
vt 0.5 -0.5 0
vt 0.5 -0.5 0
vt 0.4375 -0.25 0
vt 0.5 -0.3125 0
vt 0.5 -0.3125 0
vt 0.4375 -0.25 0
vt 0.5625 -0.3125 0
vt 0.3125 -0.5 0
vt 0.3125 -0.5 0
vt 0.3125 -0.3125 0
vt 0.3125 -0.3125 0
vt 0.3125 -0.3125 0
vt 0.3125 -0.3125 0
vt 0.4375 -0.5 0
vt 0.4375 -0.3125 0
vt 0.4375 -0.5 0
vt 0.4375 -0.5 0
vt 0.4375 -0.3125 0
vt 0.4375 -0.3125 0
vt 0.4375 -0.3125 0
vt 0.4375 -0.3125 0
# 28 texture coords

g Body
usemtl Material.001
s 1
f 1/1/1 4/4/4 11/11/11
f 1/1/1 11/11/11 8/8/8
f 9/9/9 12/12/12 25/25/25
f 9/9/9 25/25/25 21/21/21
f 23/23/23 28/28/28 19/19/19
f 24/24/24 20/20/20 16/16/16
f 15/15/15 18/18/18 7/7/7
f 15/15/15 7/7/7 3/3/3
f 10/10/10 22/22/22 14/14/14
f 10/10/10 14/14/14 2/2/2
f 26/26/26 13/13/13 5/5/5
f 27/27/27 6/6/6 17/17/17
#12 polygons


#
# object BodyOut
#

v -0.5 -4.99999976158142096 0.89999991655349728
v -0.5 -4.99999976158142096 0.89999991655349728
v -0.5 -4.99999976158142096 0.89999991655349728
v -0.5 -2.39999961853027344 0.89999997615814208
v -0.5 -2.39999961853027344 0.89999997615814208
v -0.5 -2.39999961853027344 0.89999997615814208
v -0.5 -2.39999961853027344 0.89999997615814208
v -0.5 -4.99999928474426272 -0.90000003576278688
v -0.5 -4.99999928474426272 -0.90000003576278688
v -0.5 -4.99999928474426272 -0.90000003576278688
v -0.5 -4.99999928474426272 -0.90000003576278688
v -0.5 -4.99999928474426272 -0.90000003576278688
v -0.5 -2.39999961853027344 -0.89999997615814208
v -0.5 -2.39999961853027344 -0.89999997615814208
v -0.5 -2.39999961853027344 -0.89999997615814208
v 0.5 -4.99999976158142096 0.89999991655349728
v 0.5 -4.99999976158142096 0.89999991655349728
v 0.5 -4.99999976158142096 0.89999991655349728
v 0.5 -4.99999976158142096 0.89999991655349728
v 0.5 -4.99999976158142096 0.89999991655349728
v 0.5 -2.39999961853027344 0.89999997615814208
v 0.5 -2.39999961853027344 0.89999997615814208
v 0.5 -2.39999961853027344 0.89999997615814208
v 0.5 -4.99999976158142096 -0.90000003576278688
v 0.5 -4.99999976158142096 -0.90000003576278688
v 0.5 -4.99999976158142096 -0.90000003576278688
v 0.5 -2.39999961853027344 -0.89999997615814208
v 0.5 -2.39999961853027344 -0.89999997615814208
v 0.5 -2.39999961853027344 -0.89999997615814208
v 0.5 -2.39999961853027344 -0.89999997615814208
# 30 vertices

vn -1 0 0
vn 0 -1 -2.649095449669403E-07
vn 0 -4.5849724017443805E-08 1
vn -1 0 0
vn 0 -4.5849724017443805E-08 1
vn 0 0 1
vn 0 1 0
vn -1 0 0
vn -5.298190899338806E-07 -1 0
vn 0 -1 -2.649095449669403E-07
vn 0 0 -1
vn 2.186285210487547E-14 4.5849724017443805E-08 -1
vn -1 0 0
vn 0 0 -1
vn 0 1 0
vn -5.298190899338806E-07 -1 0
vn 0 -1 -2.649095449669403E-07
vn 0 -4.5849724017443805E-08 1
vn 0 0 1
vn 1 0 0
vn 0 0 1
vn 0 1 0
vn 1 0 0
vn -5.298190899338806E-07 -1 0
vn 2.186285210487547E-14 4.5849724017443805E-08 -1
vn 1 0 0
vn 0 0 -1
vn 2.186285210487547E-14 4.5849724017443805E-08 -1
vn 0 1 0
vn 1 0 0
# 30 vertex normals

vt 0.625 -0.7500000596046448 0
vt 0.5625000596046448 -0.5 0
vt 0.25 -0.75 0
vt 0.625 -0.5625000596046448 0
vt 0.25 -0.5624999403953552 0
vt 0.25 -0.5624999403953552 0
vt 0.3125 -0.5 0
vt 0.5 -0.75 0
vt 0.4375000298023224 -0.5 0
vt 0.4375000298023224 -0.5 0
vt 0.5 -0.734375 0
vt 0.5 -0.734375 0
vt 0.5 -0.5625 0
vt 0.5 -0.546875 0
vt 0.4375 -0.5 0
vt 0.5625 -0.5625 0
vt 0.5625 -0.5625 0
vt 0.3125 -0.75 0
vt 0.3125 -0.75 0
vt 0.3125 -0.75 0
vt 0.3125 -0.5625 0
vt 0.3125 -0.5625 0
vt 0.3125 -0.5625 0
vt 0.4375 -0.5625 0
vt 0.4375 -0.734375 0
vt 0.4375 -0.75 0
vt 0.4375 -0.546875 0
vt 0.4375 -0.546875 0
vt 0.4375 -0.5625 0
vt 0.4375 -0.5625 0
# 30 texture coords

g BodyOut
usemtl Material.001
s 2
f 29/29/29 32/32/32 41/41/41
f 29/29/29 41/41/41 36/36/36
f 39/39/39 42/42/42 55/55/55
f 40/40/40 56/56/56 53/53/53
f 54/54/54 58/58/58 51/51/51
f 54/54/54 51/51/51 48/48/48
f 47/47/47 49/49/49 34/34/34
f 46/46/46 33/33/33 31/31/31
f 37/37/37 52/52/52 44/44/44
f 38/38/38 45/45/45 30/30/30
f 57/57/57 43/43/43 35/35/35
f 57/57/57 35/35/35 50/50/50
#12 polygons


#
# object Head
#

v 0.79999989271163936 -0.90000057220458992 -0.79999989271163936
v 0.79999989271163936 -0.90000057220458992 -0.79999989271163936
v 0.79999989271163936 -0.90000057220458992 -0.79999989271163936
v 0.79999989271163936 -0.90000057220458992 -0.79999989271163936
v 0.79999989271163936 -2.5 -0.79999989271163936
v 0.79999989271163936 -2.5 -0.79999989271163936
v 0.79999989271163936 -2.5 -0.79999989271163936
v 0.79999989271163936 -0.90000057220458992 0.79999989271163936
v 0.79999989271163936 -0.90000057220458992 0.79999989271163936
v 0.79999989271163936 -0.90000057220458992 0.79999989271163936
v 0.79999989271163936 -2.5 0.79999989271163936
v 0.79999989271163936 -2.5 0.79999989271163936
v 0.79999989271163936 -2.5 0.79999989271163936
v -0.79999989271163936 -0.90000009536743168 -0.79999989271163936
v -0.79999989271163936 -0.90000009536743168 -0.79999989271163936
v -0.79999989271163936 -0.90000009536743168 -0.79999989271163936
v -0.79999989271163936 -0.90000009536743168 -0.79999989271163936
v -0.79999989271163936 -2.5 -0.79999989271163936
v -0.79999989271163936 -2.5 -0.79999989271163936
v -0.79999989271163936 -2.5 -0.79999989271163936
v -0.79999989271163936 -0.90000057220458992 0.79999989271163936
v -0.79999989271163936 -0.90000057220458992 0.79999989271163936
v -0.79999989271163936 -0.90000057220458992 0.79999989271163936
v -0.79999989271163936 -0.90000057220458992 0.79999989271163936
v -0.79999989271163936 -2.5 0.79999989271163936
v -0.79999989271163936 -2.5 0.79999989271163936
v -0.79999989271163936 -2.5 0.79999989271163936
v -0.79999989271163936 -2.5 0.79999989271163936
# 28 vertices

vn 0 0 -1
vn 0 1 0
vn 0 1 2.98023280720372E-07
vn 1 0 0
vn 0 0 -1
vn 0 -1 0
vn 1 0 0
vn 0 1 0
vn 0 0 1
vn 1 0 0
vn 0 -1 0
vn 0 0 1
vn 1 0 0
vn -1 0 -1.8626442610525373E-08
vn -1 0 0
vn 0 0 -1
vn 0 1 2.98023280720372E-07
vn -1 0 0
vn 0 0 -1
vn 0 -1 0
vn -1 0 -1.8626442610525373E-08
vn 0 1 0
vn 0 1 2.98023280720372E-07
vn 0 0 1
vn -1 0 -1.8626442610525373E-08
vn -1 0 0
vn 0 -1 0
vn 0 0 1
# 28 vertex normals

vt 0.25 -0.125 0
vt 0.25 -0.125 0
vt 0.25 -0.125 0
vt 0.25 -0.125 0
vt 0.25 -0.25 0
vt 0.25 -0.125 0
vt 0.25 -0.25 0
vt 0.125 -0.125 0
vt 0.125 -0.125 0
vt 0.125 -0.125 0
vt 0.375 -0.125 0
vt 0.125 -0.25 0
vt 0.125 -0.25 0
vt 0.375 -0.125 0
vt 0.375 -0.125 0
vt 0.375 -0.125 0
vt 0.25 -0 0
vt 0.375 -0.25 0
vt 0.375 -0.25 0
vt 0.25 -0 0
vt 0.5 -0.125 0
vt 0.125 -0 0
vt 0.125 -0 0
vt 0 -0.125 0
vt 0.5 -0.25 0
vt 0.5 -0.25 0
vt 0.375 -0 0
vt 0 -0.25 0
# 28 texture coords

g Head
usemtl Material.001
s 4
f 61/61/61 75/75/75 81/81/81
f 60/60/60 80/80/80 66/66/66
f 70/70/70 67/67/67 82/82/82
f 70/70/70 82/82/82 86/86/86
f 83/83/83 79/79/79 72/72/72
f 84/84/84 73/73/73 76/76/76
f 78/78/78 64/64/64 69/69/69
f 78/78/78 69/69/69 85/85/85
f 65/65/65 62/62/62 68/68/68
f 65/65/65 68/68/68 71/71/71
f 77/77/77 74/74/74 59/59/59
f 77/77/77 59/59/59 63/63/63
#12 polygons


#
# object HeadOut
#

v -0.89999997615814208 -2.60000038146972656 0.89999997615814208
v -0.89999997615814208 -2.60000038146972656 0.89999997615814208
v -0.89999997615814208 -2.60000038146972656 0.89999997615814208
v -0.89999997615814208 -0.80000019073486336 0.89999997615814208
v -0.89999997615814208 -0.80000019073486336 0.89999997615814208
v -0.89999997615814208 -0.80000019073486336 0.89999997615814208
v -0.89999997615814208 -2.60000038146972656 -0.89999997615814208
v -0.89999997615814208 -2.60000038146972656 -0.89999997615814208
v -0.89999997615814208 -2.60000038146972656 -0.89999997615814208
v -0.89999997615814208 -0.80000019073486336 -0.89999997615814208
v -0.89999997615814208 -0.80000019073486336 -0.89999997615814208
v -0.89999997615814208 -0.80000019073486336 -0.89999997615814208
v 0.89999997615814208 -2.60000038146972656 0.89999997615814208
v 0.89999997615814208 -2.60000038146972656 0.89999997615814208
v 0.89999997615814208 -2.60000038146972656 0.89999997615814208
v 0.89999997615814208 -0.80000019073486336 0.89999997615814208
v 0.89999997615814208 -0.80000019073486336 0.89999997615814208
v 0.89999997615814208 -0.80000019073486336 0.89999997615814208
v 0.89999997615814208 -2.60000038146972656 -0.89999997615814208
v 0.89999997615814208 -2.60000038146972656 -0.89999997615814208
v 0.89999997615814208 -2.60000038146972656 -0.89999997615814208
v 0.89999997615814208 -0.80000019073486336 -0.89999997615814208
v 0.89999997615814208 -0.80000019073486336 -0.89999997615814208
v 0.89999997615814208 -0.80000019073486336 -0.89999997615814208
# 24 vertices

vn -1 0 0
vn 0 -1 0
vn 0 0 1
vn -1 0 0
vn 0 1 0
vn 0 0 1
vn -1 0 0
vn 0 0 -1
vn 0 -1 0
vn -1 0 0
vn 0 0 -1
vn 0 1 0
vn 0 -1 0
vn 0 0 1
vn 1 0 0
vn 0 1 0
vn 0 0 1
vn 1 0 0
vn 0 0 -1
vn 0 -1 0
vn 1 0 0
vn 0 0 -1
vn 0 1 0
vn 1 0 0
# 24 vertex normals

vt 1 -0.25 0
vt 0.875 -0 0
vt 0.5 -0.25 0
vt 1 -0.125 0
vt 0.625 -0 0
vt 0.5 -0.125 0
vt 0.875 -0.25 0
vt 0.875 -0.25 0
vt 0.75 -0 0
vt 0.875 -0.125 0
vt 0.875 -0.125 0
vt 0.75 -0 0
vt 0.875 -0.125 0
vt 0.625 -0.25 0
vt 0.625 -0.25 0
vt 0.625 -0.125 0
vt 0.625 -0.125 0
vt 0.625 -0.125 0
vt 0.75 -0.25 0
vt 0.75 -0.125 0
vt 0.75 -0.25 0
vt 0.75 -0.125 0
vt 0.75 -0.125 0
vt 0.75 -0.125 0
# 24 texture coords

g HeadOut
usemtl Material.001
s 8
f 87/87/87 90/90/90 96/96/96
f 87/87/87 96/96/96 93/93/93
f 94/94/94 97/97/97 108/108/108
f 94/94/94 108/108/108 105/105/105
f 107/107/107 110/110/110 104/104/104
f 107/107/107 104/104/104 101/101/101
f 100/100/100 103/103/103 92/92/92
f 100/100/100 92/92/92 89/89/89
f 95/95/95 106/106/106 99/99/99
f 95/95/95 99/99/99 88/88/88
f 109/109/109 98/98/98 91/91/91
f 109/109/109 91/91/91 102/102/102
#12 polygons


#
# object LArm
#

v -0.39999991655349728 -4.89999961853027344 -0.79999965429306032
v -0.39999991655349728 -4.89999961853027344 -0.79999965429306032
v -0.39999991655349728 -4.89999961853027344 -0.79999965429306032
v -0.39999991655349728 -2.49999952316284176 -0.80000013113021856
v -0.39999991655349728 -2.49999952316284176 -0.80000013113021856
v -0.39999991655349728 -2.49999952316284176 -0.80000013113021856
v -0.39999991655349728 -2.49999952316284176 -0.80000013113021856
v -0.39999991655349728 -4.89999961853027344 -1.59999954700469968
v -0.39999991655349728 -4.89999961853027344 -1.59999954700469968
v -0.39999991655349728 -4.89999961853027344 -1.59999954700469968
v -0.39999991655349728 -2.49999952316284176 -1.59999990463256832
v -0.39999991655349728 -2.49999952316284176 -1.59999990463256832
v -0.39999991655349728 -2.49999952316284176 -1.59999990463256832
v 0.39999991655349728 -4.89999961853027344 -0.79999965429306032
v 0.39999991655349728 -4.89999961853027344 -0.79999965429306032
v 0.39999991655349728 -4.89999961853027344 -0.79999965429306032
v 0.39999991655349728 -4.89999961853027344 -0.79999965429306032
v 0.39999991655349728 -2.49999952316284176 -0.80000013113021856
v 0.39999991655349728 -2.49999952316284176 -0.80000013113021856
v 0.39999991655349728 -2.49999952316284176 -0.80000013113021856
v 0.39999991655349728 -4.89999961853027344 -1.59999954700469968
v 0.39999991655349728 -4.89999961853027344 -1.59999954700469968
v 0.39999991655349728 -4.89999961853027344 -1.59999954700469968
v 0.39999991655349728 -2.49999952316284176 -1.59999990463256832
v 0.39999991655349728 -2.49999952316284176 -1.59999990463256832
v 0.39999991655349728 -2.49999952316284176 -1.59999990463256832
# 26 vertices

vn -1 0 0
vn 0 -1 0
vn 0 2.483527339336433E-07 1
vn -1 0 0
vn 0 1 0
vn 0 1.8626454334480513E-07 1
vn 0 2.483527339336433E-07 1
vn -1 0 0
vn 0 -1.2417636696682166E-07 -1
vn 0 -1 0
vn -1 0 0
vn 0 -1.2417636696682166E-07 -1
vn 0 1 0
vn 0 -1 0
vn 0 1.8626454334480513E-07 1
vn 0 2.483527339336433E-07 1
vn 1 0 0
vn 0 1 0
vn 0 1.8626454334480513E-07 1
vn 1 0 0
vn 0 -1.2417636696682166E-07 -1
vn 0 -1 0
vn 1 0 0
vn 0 -1.2417636696682166E-07 -1
vn 0 1 0
vn 1 0 0
# 26 vertex normals

vt 0.75 -1 0
vt 0.6875 -0.75 0
vt 0.5 -1 0
vt 0.75 -0.8125000596046448 0
vt 0.5625 -0.75 0
vt 0.5 -0.8124999403953552 0
vt 0.5 -0.8124999403953552 0
vt 0.6875 -1 0
vt 0.6875 -1 0
vt 0.625 -0.75 0
vt 0.6875 -0.8125 0
vt 0.6875 -0.8125 0
vt 0.625 -0.75 0
vt 0.6875 -0.8125 0
vt 0.5625 -1 0
vt 0.5625 -1 0
vt 0.5625 -1 0
vt 0.5625 -0.8125 0
vt 0.5625 -0.8125 0
vt 0.5625 -0.8125 0
vt 0.625 -1 0
vt 0.625 -0.8125 0
vt 0.625 -1 0
vt 0.625 -0.8125 0
vt 0.625 -0.8125 0
vt 0.625 -0.8125 0
# 26 texture coords

g LArm
usemtl Material.001
s 16
f 111/111/111 114/114/114 121/121/121
f 111/111/111 121/121/121 118/118/118
f 119/119/119 122/122/122 134/134/134
f 119/119/119 134/134/134 131/131/131
f 133/133/133 136/136/136 130/130/130
f 133/133/133 130/130/130 127/127/127
f 125/125/125 129/129/129 116/116/116
f 126/126/126 117/117/117 113/113/113
f 120/120/120 132/132/132 124/124/124
f 120/120/120 124/124/124 112/112/112
f 135/135/135 123/123/123 115/115/115
f 135/135/135 115/115/115 128/128/128
#12 polygons


#
# object LArmOut
#

v -0.5 -4.99999952316284176 -0.69999939203262328
v -0.5 -4.99999952316284176 -0.69999939203262328
v -0.5 -4.99999952316284176 -0.69999939203262328
v -0.5 -2.39999961853027344 -0.69999998807907104
v -0.5 -2.39999961853027344 -0.69999998807907104
v -0.5 -2.39999961853027344 -0.69999998807907104
v -0.5 -4.99999976158142096 -1.69999945163726808
v -0.5 -4.99999976158142096 -1.69999945163726808
v -0.5 -4.99999976158142096 -1.69999945163726808
v -0.5 -4.99999976158142096 -1.69999945163726808
v -0.5 -2.39999961853027344 -1.69999992847442624
v -0.5 -2.39999961853027344 -1.69999992847442624
v -0.5 -2.39999961853027344 -1.69999992847442624
v 0.5 -4.99999952316284176 -0.69999939203262328
v 0.5 -4.99999952316284176 -0.69999939203262328
v 0.5 -4.99999952316284176 -0.69999939203262328
v 0.5 -4.99999952316284176 -0.69999939203262328
v 0.5 -2.39999961853027344 -0.69999998807907104
v 0.5 -2.39999961853027344 -0.69999998807907104
v 0.5 -2.39999961853027344 -0.69999998807907104
v 0.5 -4.99999976158142096 -1.69999945163726808
v 0.5 -4.99999976158142096 -1.69999945163726808
v 0.5 -4.99999976158142096 -1.69999945163726808
v 0.5 -2.39999961853027344 -1.69999992847442624
v 0.5 -2.39999961853027344 -1.69999992847442624
v 0.5 -2.39999961853027344 -1.69999992847442624
# 26 vertices

vn -1 0 0
vn 0 -1 2.3841855067985307E-07
vn 0 2.292486414035011E-07 1
vn -1 0 0
vn 0 2.292486414035011E-07 1
vn 0 1 0
vn -1 0 0
vn 0 -1 2.3841855067985307E-07
vn 0 -1 2.384185791015625E-07
vn 0 -1.8339889606977522E-07 -1
vn -1 0 0
vn 0 -1.8339889606977522E-07 -1
vn 0 1 0
vn 0 -1 2.3841855067985307E-07
vn 0 -1 2.384185791015625E-07
vn 0 2.292486414035011E-07 1
vn 1 0 0
vn 0 2.292486414035011E-07 1
vn 0 1 0
vn 1 0 0
vn 0 -1 2.384185791015625E-07
vn 0 -1.8339889606977522E-07 -1
vn 1 0 0
vn 0 -1.8339889606977522E-07 -1
vn 0 1 0
vn 1 0 0
# 26 vertex normals

vt 1 -1 0
vt 0.9375 -0.75 0
vt 0.75 -1 0
vt 1 -0.8125000596046448 0
vt 0.75 -0.8124999403953552 0
vt 0.8125 -0.75 0
vt 0.9375 -1 0
vt 0.875 -0.75 0
vt 0.875 -0.75 0
vt 0.9375 -1 0
vt 0.9375 -0.8125 0
vt 0.9375 -0.8125 0
vt 0.875 -0.75 0
vt 0.9375 -0.8125 0
vt 0.9375 -0.8125 0
vt 0.8125 -1 0
vt 0.8125 -1 0
vt 0.8125 -0.8125 0
vt 0.8125 -0.8125 0
vt 0.8125 -0.8125 0
vt 0.875 -0.8125 0
vt 0.875 -1 0
vt 0.875 -1 0
vt 0.875 -0.8125 0
vt 0.875 -0.8125 0
vt 0.875 -0.8125 0
# 26 texture coords

g LArmOut
usemtl Material.001
s 32
f 137/137/137 140/140/140 147/147/147
f 137/137/137 147/147/147 143/143/143
f 146/146/146 148/148/148 160/160/160
f 146/146/146 160/160/160 158/158/158
f 159/159/159 162/162/162 156/156/156
f 159/159/159 156/156/156 153/153/153
f 152/152/152 154/154/154 141/141/141
f 152/152/152 141/141/141 139/139/139
f 145/145/145 157/157/157 151/151/151
f 144/144/144 150/150/150 138/138/138
f 161/161/161 149/149/149 142/142/142
f 161/161/161 142/142/142 155/155/155
#12 polygons


#
# object LLeg
#

v -0.39999991655349728 -7.3000004291534424 7.272790298884502E-07
v -0.39999991655349728 -7.3000004291534424 7.272790298884502E-07
v -0.39999991655349728 -7.3000004291534424 7.272790298884502E-07
v -0.39999991655349728 -7.3000004291534424 7.272790298884502E-07
v -0.39999991655349728 -4.8999991416931152 8.572618526159204E-08
v -0.39999991655349728 -4.8999991416931152 8.572618526159204E-08
v -0.39999991655349728 -4.8999991416931152 8.572618526159204E-08
v -0.39999991655349728 -4.8999991416931152 8.572618526159204E-08
v -0.39999991655349728 -4.8999991416931152 8.572618526159204E-08
v -0.39999991655349728 -7.29999995231628416 -0.79999929666519168
v -0.39999991655349728 -7.29999995231628416 -0.79999929666519168
v -0.39999991655349728 -7.29999995231628416 -0.79999929666519168
v -0.39999991655349728 -7.29999995231628416 -0.79999929666519168
v -0.39999991655349728 -4.8999993801116944 -0.79999989271163936
v -0.39999991655349728 -4.8999993801116944 -0.79999989271163936
v -0.39999991655349728 -4.8999993801116944 -0.79999989271163936
v -0.39999991655349728 -4.8999993801116944 -0.79999989271163936
v 0.39999991655349728 -7.30000019073486328 7.070015044519096E-07
v 0.39999991655349728 -7.30000019073486328 7.070015044519096E-07
v 0.39999991655349728 -7.30000019073486328 7.070015044519096E-07
v 0.39999991655349728 -7.30000019073486328 7.070015044519096E-07
v 0.39999991655349728 -7.30000019073486328 7.070015044519096E-07
v 0.39999991655349728 -4.8999991416931152 8.546123808628181E-08
v 0.39999991655349728 -4.8999991416931152 8.546123808628181E-08
v 0.39999991655349728 -4.8999991416931152 8.546123808628181E-08
v 0.39999991655349728 -4.8999991416931152 8.546123808628181E-08
v 0.39999991655349728 -7.3000004291534424 -0.79999929666519168
v 0.39999991655349728 -7.3000004291534424 -0.79999929666519168
v 0.39999991655349728 -7.3000004291534424 -0.79999929666519168
v 0.39999991655349728 -7.3000004291534424 -0.79999929666519168
v 0.39999991655349728 -4.89999985694885248 -0.79999989271163936
v 0.39999991655349728 -4.89999985694885248 -0.79999989271163936
v 0.39999991655349728 -4.89999985694885248 -0.79999989271163936
v 0.39999991655349728 -4.89999985694885248 -0.79999989271163936
# 34 vertices

vn -1 0 -2.483527694607801E-08
vn -1 0 0
vn 3.0901659897608624E-07 -1 -5.960464477539062E-07
vn 2.5346828635974816E-08 2.673135668374016E-07 1
vn -1 0 -2.483527694607801E-08
vn -2.0699006952895616E-09 1 -8.940697284742782E-07
vn 1.1175873169122497E-06 1 -2.980232238769531E-07
vn 3.3120178821732793E-10 2.589750351944531E-07 1
vn 2.5346828635974816E-08 2.673135668374016E-07 1
vn -1 0 0
vn -1.7763568394002505E-13 -2.4835267709022446E-07 -1
vn -6.053597871868988E-07 -1 2.980231954552437E-07
vn 3.0901659897608624E-07 -1 -5.960464477539062E-07
vn -1 0 -2.483527694607801E-08
vn -1 0 0
vn -1.7763568394002505E-13 -2.4835267709022446E-07 -1
vn 1.1175873169122497E-06 1 -2.980232238769531E-07
vn -6.053597871868988E-07 -1 2.980231954552437E-07
vn 3.0901659897608624E-07 -1 -5.960464477539062E-07
vn 3.3120178821732793E-10 2.589750351944531E-07 1
vn 2.5346828635974816E-08 2.673135668374016E-07 1
vn 1 0 0
vn -2.0699006952895616E-09 1 -8.940697284742782E-07
vn 3.3120178821732793E-10 2.589750351944531E-07 1
vn 1 0 -1.2417680217424731E-08
vn 1 0 0
vn -1.7763568394002505E-13 -2.4835267709022446E-07 -1
vn -6.053597871868988E-07 -1 2.980231954552437E-07
vn 1 0 -1.2417680217424731E-08
vn 1 0 0
vn -1.7763568394002505E-13 -2.4835267709022446E-07 -1
vn -2.0699006952895616E-09 1 -8.940697284742782E-07
vn 1.1175873169122497E-06 1 -2.980232238769531E-07
vn 1 0 -1.2417680217424731E-08
# 34 vertex normals

vt 0.5 -1 0
vt 0.5 -1 0
vt 0.4375 -0.75 0
vt 0.25 -1 0
vt 0.5 -0.8125000596046448 0
vt 0.3125 -0.75 0
vt 0.3125 -0.75 0
vt 0.25 -0.8124999403953552 0
vt 0.25 -0.8124999403953552 0
vt 0.4375 -1 0
vt 0.4375 -1 0
vt 0.375 -0.75 0
vt 0.375 -0.75 0
vt 0.4375 -0.8125 0
vt 0.4375 -0.8125 0
vt 0.4375 -0.8125 0
vt 0.375 -0.75 0
vt 0.4375 -0.8125 0
vt 0.4375 -0.8125 0
vt 0.3125 -1 0
vt 0.3125 -1 0
vt 0.3125 -1 0
vt 0.3125 -0.8125 0
vt 0.3125 -0.8125 0
vt 0.3125 -0.8125 0
vt 0.3125 -0.8125 0
vt 0.375 -1 0
vt 0.375 -0.8125 0
vt 0.375 -1 0
vt 0.375 -1 0
vt 0.375 -0.8125 0
vt 0.375 -0.8125 0
vt 0.375 -0.8125 0
vt 0.375 -0.8125 0
# 34 texture coords

g LLeg
usemtl Material.001
s 64
f 163/163/163 167/167/167 176/176/176
f 164/164/164 177/177/177 172/172/172
f 173/173/173 178/178/178 193/193/193
f 173/173/173 193/193/193 189/189/189
f 191/191/191 196/196/196 187/187/187
f 192/192/192 188/188/188 184/184/184
f 182/182/182 186/186/186 170/170/170
f 183/183/183 171/171/171 166/166/166
f 174/174/174 190/190/190 180/180/180
f 175/175/175 181/181/181 165/165/165
f 195/195/195 179/179/179 169/169/169
f 194/194/194 168/168/168 185/185/185
#12 polygons


#
# object LLegOut
#

v -0.5 -7.40000009536743168 0.10000082850456238
v -0.5 -7.40000009536743168 0.10000082850456238
v -0.5 -7.40000009536743168 0.10000082850456238
v -0.5 -4.79999947547912592 0.10000015795230866
v -0.5 -4.79999947547912592 0.10000015795230866
v -0.5 -4.79999947547912592 0.10000015795230866
v -0.5 -4.79999947547912592 0.10000015795230866
v -0.5 -4.79999947547912592 0.10000015795230866
v -0.5 -7.40000009536743168 -0.8999993801116944
v -0.5 -7.40000009536743168 -0.8999993801116944
v -0.5 -7.40000009536743168 -0.8999993801116944
v -0.5 -7.40000009536743168 -0.8999993801116944
v -0.5 -7.40000009536743168 -0.8999993801116944
v -0.5 -4.79999971389770512 -0.90000009536743168
v -0.5 -4.79999971389770512 -0.90000009536743168
v -0.5 -4.79999971389770512 -0.90000009536743168
v 0.5 -7.40000057220458984 0.10000084340572358
v 0.5 -7.40000057220458984 0.10000084340572358
v 0.5 -7.40000057220458984 0.10000084340572358
v 0.5 -7.40000057220458984 0.10000084340572358
v 0.5 -7.40000057220458984 0.10000084340572358
v 0.5 -4.79999923706054688 0.10000013560056686
v 0.5 -4.79999923706054688 0.10000013560056686
v 0.5 -4.79999923706054688 0.10000013560056686
v 0.5 -7.40000009536743168 -0.8999993801116944
v 0.5 -7.40000009536743168 -0.8999993801116944
v 0.5 -7.40000009536743168 -0.8999993801116944
v 0.5 -4.79999971389770512 -0.90000015497207648
v 0.5 -4.79999971389770512 -0.90000015497207648
v 0.5 -4.79999971389770512 -0.90000015497207648
v 0.5 -4.79999971389770512 -0.90000015497207648
v 0.5 -4.79999971389770512 -0.90000015497207648
# 32 vertices

vn -1 0 0
vn -4.76837158203125E-07 -1 0
vn -1.4901018197122085E-08 2.5790464519559464E-07 1
vn -1 0 0
vn -1.4901018197122085E-08 2.5790464519559464E-07 1
vn 2.2351684947352624E-08 2.750982162069704E-07 1
vn -1.1622904594332795E-07 1 -4.768370445162873E-07
vn 0 1 -2.3841852225814364E-07
vn -1 0 0
vn -4.76837158203125E-07 -1 0
vn 0 -1 -4.768370445162873E-07
vn -5.96046660916727E-08 -2.750983298938081E-07 -1
vn 0 -2.750983298938081E-07 -1
vn -1 0 0
vn -5.96046660916727E-08 -2.750983298938081E-07 -1
vn 0 1 -2.3841852225814364E-07
vn -4.76837158203125E-07 -1 0
vn 0 -1 -4.768370445162873E-07
vn -1.4901018197122085E-08 2.5790464519559464E-07 1
vn 2.2351684947352624E-08 2.750982162069704E-07 1
vn 1 0 0
vn 2.2351684947352624E-08 2.750982162069704E-07 1
vn -1.1622904594332795E-07 1 -4.768370445162873E-07
vn 1 0 0
vn 0 -1 -4.768370445162873E-07
vn 0 -2.750983298938081E-07 -1
vn 1 0 0
vn -5.96046660916727E-08 -2.750983298938081E-07 -1
vn 0 -2.750983298938081E-07 -1
vn -1.1622904594332795E-07 1 -4.768370445162873E-07
vn 0 1 -2.3841852225814364E-07
vn 1 0 0
# 32 vertex normals

vt 0.25 -1 0
vt 0.1875 -0.75 0
vt 0 -1 0
vt 0.25 -0.8125000596046448 0
vt 0 -0.8124999403953552 0
vt 0 -0.8124999403953552 0
vt 0.0625 -0.75 0
vt 0.0625 -0.75 0
vt 0.1875 -1 0
vt 0.125 -0.75 0
vt 0.125 -0.75 0
vt 0.1875 -1 0
vt 0.1875 -1 0
vt 0.1875 -0.8125 0
vt 0.1875 -0.8125 0
vt 0.125 -0.75 0
vt 0.1875 -0.8125 0
vt 0.1875 -0.8125 0
vt 0.0625 -1 0
vt 0.0625 -1 0
vt 0.0625 -1 0
vt 0.0625 -0.8125 0
vt 0.0625 -0.8125 0
vt 0.0625 -0.8125 0
vt 0.125 -0.8125 0
vt 0.125 -1 0
vt 0.125 -1 0
vt 0.125 -0.8125 0
vt 0.125 -0.8125 0
vt 0.125 -0.8125 0
vt 0.125 -0.8125 0
vt 0.125 -0.8125 0
# 32 texture coords

g LLegOut
usemtl Material.001
s 128
f 197/197/197 200/200/200 210/210/210
f 197/197/197 210/210/210 205/205/205
f 208/208/208 211/211/211 224/224/224
f 209/209/209 225/225/225 222/222/222
f 223/223/223 228/228/228 220/220/220
f 223/223/223 220/220/220 217/217/217
f 216/216/216 218/218/218 202/202/202
f 215/215/215 201/201/201 199/199/199
f 207/207/207 221/221/221 214/214/214
f 206/206/206 213/213/213 198/198/198
f 227/227/227 212/212/212 204/204/204
f 226/226/226 203/203/203 219/219/219
#12 polygons


#
# object RArm
#

v -0.39999991655349728 -4.90000057220458992 1.59999942779541016
v -0.39999991655349728 -4.90000057220458992 1.59999942779541016
v -0.39999991655349728 -4.90000057220458992 1.59999942779541016
v -0.39999991655349728 -2.5 1.60000002384185792
v -0.39999991655349728 -2.5 1.60000002384185792
v -0.39999991655349728 -2.5 1.60000002384185792
v -0.39999991655349728 -2.5 1.60000002384185792
v -0.39999991655349728 -2.5 1.60000002384185792
v -0.39999991655349728 -4.90000009536743168 0.79999965429306032
v -0.39999991655349728 -4.90000009536743168 0.79999965429306032
v -0.39999991655349728 -4.90000009536743168 0.79999965429306032
v -0.39999991655349728 -4.90000009536743168 0.79999965429306032
v -0.39999991655349728 -4.90000009536743168 0.79999965429306032
v -0.39999991655349728 -2.5 0.80000013113021856
v -0.39999991655349728 -2.5 0.80000013113021856
v -0.39999991655349728 -2.5 0.80000013113021856
v 0.39999991655349728 -4.90000057220458992 1.59999942779541016
v 0.39999991655349728 -4.90000057220458992 1.59999942779541016
v 0.39999991655349728 -4.90000057220458992 1.59999942779541016
v 0.39999991655349728 -4.90000057220458992 1.59999942779541016
v 0.39999991655349728 -4.90000057220458992 1.59999942779541016
v 0.39999991655349728 -2.50000047683715824 1.60000002384185792
v 0.39999991655349728 -2.50000047683715824 1.60000002384185792
v 0.39999991655349728 -2.50000047683715824 1.60000002384185792
v 0.39999991655349728 -2.50000047683715824 1.60000002384185792
v 0.39999991655349728 -4.90000009536743168 0.79999965429306032
v 0.39999991655349728 -4.90000009536743168 0.79999965429306032
v 0.39999991655349728 -4.90000009536743168 0.79999965429306032
v 0.39999991655349728 -4.90000009536743168 0.79999965429306032
v 0.39999991655349728 -2.5 0.80000013113021856
v 0.39999991655349728 -2.5 0.80000013113021856
v 0.39999991655349728 -2.5 0.80000013113021856
v 0.39999991655349728 -2.5 0.80000013113021856
v 0.39999991655349728 -2.5 0.80000013113021856
# 34 vertices

vn -1 0 0
vn 0 -1 -5.960466751275817E-07
vn 0 -2.4835267709022446E-07 1
vn -1 0 0
vn 0 1 0
vn 0 1 5.96046561440744E-07
vn 0 -2.483527339336433E-07 1
vn 0 -2.4835267709022446E-07 1
vn -1 0 0
vn 0 1.8626454334480513E-07 -1
vn 0 2.483527339336433E-07 -1
vn 0 -1 -5.960466751275817E-07
vn 0 -1 -5.96046561440744E-07
vn -1 0 0
vn 0 1.8626454334480513E-07 -1
vn 0 1 0
vn 0 -1 -5.960466751275817E-07
vn 0 -1 -5.96046561440744E-07
vn 0 -2.483527339336433E-07 1
vn 0 -2.4835267709022446E-07 1
vn 1 0 -6.208819058883819E-08
vn 0 1 5.96046561440744E-07
vn 0 -2.483527339336433E-07 1
vn 1 0 -6.208819058883819E-08
vn 1 0 4.9670575208438095E-08
vn 0 2.483527339336433E-07 -1
vn 0 -1 -5.96046561440744E-07
vn 1 0 -6.208819058883819E-08
vn 1 0 4.9670575208438095E-08
vn 0 1.8626454334480513E-07 -1
vn 0 2.483527339336433E-07 -1
vn 0 1 0
vn 0 1 5.96046561440744E-07
vn 1 0 4.9670575208438095E-08
# 34 vertex normals

vt 0.875 -0.5000000596046448 0
vt 0.8125 -0.25 0
vt 0.625 -0.5 0
vt 0.875 -0.31250005960464476 0
vt 0.6875 -0.25 0
vt 0.6875 -0.25 0
vt 0.625 -0.31249994039535524 0
vt 0.625 -0.31249994039535524 0
vt 0.8125 -0.5 0
vt 0.8125 -0.5 0
vt 0.8125 -0.5 0
vt 0.75 -0.25 0
vt 0.75 -0.25 0
vt 0.8125 -0.3125 0
vt 0.8125 -0.3125 0
vt 0.75 -0.25 0
vt 0.8125 -0.3125 0
vt 0.8125 -0.3125 0
vt 0.6875 -0.5 0
vt 0.6875 -0.5 0
vt 0.6875 -0.5 0
vt 0.6875 -0.3125 0
vt 0.6875 -0.3125 0
vt 0.6875 -0.3125 0
vt 0.6875 -0.3125 0
vt 0.75 -0.5 0
vt 0.75 -0.3125 0
vt 0.75 -0.5 0
vt 0.75 -0.5 0
vt 0.75 -0.3125 0
vt 0.75 -0.3125 0
vt 0.75 -0.3125 0
vt 0.75 -0.3125 0
vt 0.75 -0.3125 0
# 34 texture coords

g RArm
usemtl Material.001
s 256
f 229/229/229 232/232/232 242/242/242
f 229/229/229 242/242/242 237/237/237
f 238/238/238 243/243/243 258/258/258
f 239/239/239 259/259/259 254/254/254
f 257/257/257 262/262/262 253/253/253
f 256/256/256 252/252/252 249/249/249
f 247/247/247 251/251/251 235/235/235
f 248/248/248 236/236/236 231/231/231
f 241/241/241 255/255/255 246/246/246
f 240/240/240 245/245/245 230/230/230
f 260/260/260 244/244/244 233/233/233
f 261/261/261 234/234/234 250/250/250
#12 polygons


#
# object RArmOut
#

v -0.5 -5.0000004768371582 1.6999995708465576
v -0.5 -5.0000004768371582 1.6999995708465576
v -0.5 -5.0000004768371582 1.6999995708465576
v -0.5 -2.40000057220458984 1.70000004768371584
v -0.5 -2.40000057220458984 1.70000004768371584
v -0.5 -2.40000057220458984 1.70000004768371584
v -0.5 -5 0.6999995708465576
v -0.5 -5 0.6999995708465576
v -0.5 -5 0.6999995708465576
v -0.5 -2.40000009536743168 0.70000004768371584
v -0.5 -2.40000009536743168 0.70000004768371584
v -0.5 -2.40000009536743168 0.70000004768371584
v 0.5 -5.0000004768371582 1.6999995708465576
v 0.5 -5.0000004768371582 1.6999995708465576
v 0.5 -5.0000004768371582 1.6999995708465576
v 0.5 -2.40000057220458984 1.70000004768371584
v 0.5 -2.40000057220458984 1.70000004768371584
v 0.5 -2.40000057220458984 1.70000004768371584
v 0.5 -5 0.6999995708465576
v 0.5 -5 0.6999995708465576
v 0.5 -5 0.6999995708465576
v 0.5 -2.40000009536743168 0.70000004768371584
v 0.5 -2.40000009536743168 0.70000004768371584
v 0.5 -2.40000009536743168 0.70000004768371584
# 24 vertices

vn -1 0 0
vn 0 -1 -4.76837158203125E-07
vn 0 -1.8339891028062993E-07 1
vn -1 0 0
vn 0 -1.8339891028062993E-07 1
vn 0 1 4.76837158203125E-07
vn -1 0 0
vn 0 -1 -4.76837158203125E-07
vn 0 1.8339891028062993E-07 -1
vn -1 0 0
vn 0 1.8339891028062993E-07 -1
vn 0 1 4.76837158203125E-07
vn 0 -1 -4.76837158203125E-07
vn 0 -1.8339891028062993E-07 1
vn 1 0 0
vn 0 -1.8339891028062993E-07 1
vn 0 1 4.76837158203125E-07
vn 1 0 0
vn 0 -1 -4.76837158203125E-07
vn 0 1.8339891028062993E-07 -1
vn 1 0 0
vn 0 1.8339891028062993E-07 -1
vn 0 1 4.76837158203125E-07
vn 1 0 0
# 24 vertex normals

vt 0.875 -0.7500000596046448 0
vt 0.8125 -0.5 0
vt 0.625 -0.75 0
vt 0.875 -0.5625000596046448 0
vt 0.625 -0.5624999403953552 0
vt 0.6875 -0.5 0
vt 0.8125 -0.75 0
vt 0.75 -0.5 0
vt 0.8125 -0.75 0
vt 0.8125 -0.5625 0
vt 0.8125 -0.5625 0
vt 0.75 -0.5 0
vt 0.8125 -0.5625 0
vt 0.6875 -0.75 0
vt 0.6875 -0.75 0
vt 0.6875 -0.5625 0
vt 0.6875 -0.5625 0
vt 0.6875 -0.5625 0
vt 0.75 -0.5625 0
vt 0.75 -0.75 0
vt 0.75 -0.75 0
vt 0.75 -0.5625 0
vt 0.75 -0.5625 0
vt 0.75 -0.5625 0
# 24 texture coords

g RArmOut
usemtl Material.001
s 512
f 263/263/263 266/266/266 272/272/272
f 263/263/263 272/272/272 269/269/269
f 271/271/271 273/273/273 284/284/284
f 271/271/271 284/284/284 282/282/282
f 283/283/283 286/286/286 280/280/280
f 283/283/283 280/280/280 277/277/277
f 276/276/276 278/278/278 267/267/267
f 276/276/276 267/267/267 265/265/265
f 270/270/270 281/281/281 275/275/275
f 270/270/270 275/275/275 264/264/264
f 285/285/285 274/274/274 268/268/268
f 285/285/285 268/268/268 279/279/279
#12 polygons


#
# object RLeg
#

v -0.39999991655349728 -7.3000009059906006 0.79999935626983648
v -0.39999991655349728 -7.3000009059906006 0.79999935626983648
v -0.39999991655349728 -7.3000009059906006 0.79999935626983648
v -0.39999991655349728 -7.3000009059906006 0.79999935626983648
v -0.39999991655349728 -4.89999985694885248 0.80000001192092896
v -0.39999991655349728 -4.89999985694885248 0.80000001192092896
v -0.39999991655349728 -4.89999985694885248 0.80000001192092896
v -0.39999991655349728 -4.89999985694885248 0.80000001192092896
v -0.39999991655349728 -4.89999985694885248 0.80000001192092896
v -0.39999991655349728 -7.3000004291534424 -6.156788003863767E-07
v -0.39999991655349728 -7.3000004291534424 -6.156788003863767E-07
v -0.39999991655349728 -7.3000004291534424 -6.156788003863767E-07
v -0.39999991655349728 -7.3000004291534424 -6.156788003863767E-07
v -0.39999991655349728 -7.3000004291534424 -6.156788003863767E-07
v -0.39999991655349728 -4.90000009536743168 2.630156359373359E-08
v -0.39999991655349728 -4.90000009536743168 2.630156359373359E-08
v -0.39999991655349728 -4.90000009536743168 2.630156359373359E-08
v -0.39999991655349728 -4.90000009536743168 2.630156359373359E-08
v 0.39999991655349728 -7.30000066757202148 0.79999935626983648
v 0.39999991655349728 -7.30000066757202148 0.79999935626983648
v 0.39999991655349728 -7.30000066757202148 0.79999935626983648
v 0.39999991655349728 -7.30000066757202148 0.79999935626983648
v 0.39999991655349728 -7.30000066757202148 0.79999935626983648
v 0.39999991655349728 -4.90000033378601072 0.80000013113021856
v 0.39999991655349728 -4.90000033378601072 0.80000013113021856
v 0.39999991655349728 -4.90000033378601072 0.80000013113021856
v 0.39999991655349728 -4.90000033378601072 0.80000013113021856
v 0.39999991655349728 -7.30000066757202148 -6.186999712554098E-07
v 0.39999991655349728 -7.30000066757202148 -6.186999712554098E-07
v 0.39999991655349728 -7.30000066757202148 -6.186999712554098E-07
v 0.39999991655349728 -7.30000066757202148 -6.186999712554098E-07
v 0.39999991655349728 -4.90000009536743168 2.6406667075207224E-08
v 0.39999991655349728 -4.90000009536743168 2.6406667075207224E-08
v 0.39999991655349728 -4.90000009536743168 2.6406667075207224E-08
v 0.39999991655349728 -4.90000009536743168 2.6406667075207224E-08
v 0.39999991655349728 -4.90000009536743168 2.6406667075207224E-08
# 36 vertices

vn -1 0 -2.483528049879169E-08
vn -1 0 0
vn 3.026799220151588E-07 -1 -5.960465045973251E-07
vn 5.921188561165691E-14 -3.104408108356438E-07 1
vn -1 0 -2.483528049879169E-08
vn -1.8626468545335229E-07 1 2.9802316703353426E-07
vn 0 1 -2.9802325229866256E-07
vn -1.49011839312152E-07 -3.104408961007721E-07 1
vn 5.921188561165691E-14 -3.104408108356438E-07 1
vn -1 0 0
vn -3.7763570048809925E-09 2.6879433789872564E-07 -1
vn 1.313615466402851E-10 2.6749179937723966E-07 -1
vn -3.026798935934494E-07 -1 0
vn 3.026799220151588E-07 -1 -5.960465045973251E-07
vn -1 0 -2.483528049879169E-08
vn -1 0 0
vn 1.313615466402851E-10 2.6749179937723966E-07 -1
vn 0 1 -2.9802325229866256E-07
vn -3.026798935934494E-07 -1 0
vn 3.026799220151588E-07 -1 -5.960465045973251E-07
vn -1.49011839312152E-07 -3.104408961007721E-07 1
vn 5.921188561165691E-14 -3.104408108356438E-07 1
vn 1 0 0
vn -1.8626468545335229E-07 1 2.9802316703353426E-07
vn -1.49011839312152E-07 -3.104408961007721E-07 1
vn 1 0 0
vn 1 0 2.4835273393364332E-08
vn -3.7763570048809925E-09 2.6879433789872564E-07 -1
vn -3.026798935934494E-07 -1 0
vn 1 0 0
vn 1 0 2.4835273393364332E-08
vn -3.7763570048809925E-09 2.6879433789872564E-07 -1
vn 1.313615466402851E-10 2.6749179937723966E-07 -1
vn -1.8626468545335229E-07 1 2.9802316703353426E-07
vn 0 1 -2.9802325229866256E-07
vn 1 0 2.4835273393364332E-08
# 36 vertex normals

vt 0.25 -0.5000000596046448 0
vt 0.25 -0.5000000596046448 0
vt 0.1875 -0.25 0
vt 0 -0.5 0
vt 0.25 -0.31250005960464476 0
vt 0.0625 -0.25 0
vt 0.0625 -0.25 0
vt 0 -0.31249994039535524 0
vt 0 -0.31249994039535524 0
vt 0.1875 -0.5 0
vt 0.1875 -0.5 0
vt 0.1875 -0.5 0
vt 0.125 -0.25 0
vt 0.125 -0.25 0
vt 0.1875 -0.3125 0
vt 0.1875 -0.3125 0
vt 0.1875 -0.3125 0
vt 0.125 -0.25 0
vt 0.1875 -0.3125 0
vt 0.1875 -0.3125 0
vt 0.0625 -0.5 0
vt 0.0625 -0.5 0
vt 0.0625 -0.5 0
vt 0.0625 -0.3125 0
vt 0.0625 -0.3125 0
vt 0.0625 -0.3125 0
vt 0.0625 -0.3125 0
vt 0.125 -0.5 0
vt 0.125 -0.3125 0
vt 0.125 -0.5 0
vt 0.125 -0.5 0
vt 0.125 -0.3125 0
vt 0.125 -0.3125 0
vt 0.125 -0.3125 0
vt 0.125 -0.3125 0
vt 0.125 -0.3125 0
# 36 texture coords

g RLeg
usemtl Material.001
s 1024
f 287/287/287 291/291/291 301/301/301
f 288/288/288 302/302/302 296/296/296
f 298/298/298 303/303/303 319/319/319
f 297/297/297 318/318/318 314/314/314
f 317/317/317 322/322/322 313/313/313
f 316/316/316 312/312/312 309/309/309
f 307/307/307 311/311/311 294/294/294
f 308/308/308 295/295/295 290/290/290
f 299/299/299 315/315/315 305/305/305
f 300/300/300 306/306/306 289/289/289
f 321/321/321 304/304/304 293/293/293
f 320/320/320 292/292/292 310/310/310
#12 polygons


#
# object RLegOut
#

v -0.5 -7.40000104904174808 0.89999949932098384
v -0.5 -7.40000104904174808 0.89999949932098384
v -0.5 -7.40000104904174808 0.89999949932098384
v -0.5 -4.80000019073486336 0.90000015497207648
v -0.5 -4.80000019073486336 0.90000015497207648
v -0.5 -4.80000019073486336 0.90000015497207648
v -0.5 -4.80000019073486336 0.90000015497207648
v -0.5 -7.40000057220458984 -0.1000007539987564
v -0.5 -7.40000057220458984 -0.1000007539987564
v -0.5 -7.40000057220458984 -0.1000007539987564
v -0.5 -4.80000019073486336 -0.1000000536441803
v -0.5 -4.80000019073486336 -0.1000000536441803
v -0.5 -4.80000019073486336 -0.1000000536441803
v 0.5 -7.40000104904174808 0.89999949932098384
v 0.5 -7.40000104904174808 0.89999949932098384
v 0.5 -7.40000104904174808 0.89999949932098384
v 0.5 -7.40000104904174808 0.89999949932098384
v 0.5 -4.80000019073486336 0.90000015497207648
v 0.5 -4.80000019073486336 0.90000015497207648
v 0.5 -4.80000019073486336 0.90000015497207648
v 0.5 -7.40000057220458984 -0.1000007539987564
v 0.5 -7.40000057220458984 -0.1000007539987564
v 0.5 -7.40000057220458984 -0.1000007539987564
v 0.5 -4.80000019073486336 -0.1000000536441803
v 0.5 -4.80000019073486336 -0.1000000536441803
v 0.5 -4.80000019073486336 -0.1000000536441803
# 26 vertices

vn -1 0 0
vn 0 -1 -4.768370445162873E-07
vn 0 -2.7509827305038925E-07 1
vn -1 0 0
vn 0 -2.7509827305038925E-07 1
vn 0 -2.2924857034922752E-07 1
vn 0 1 0
vn -1 0 0
vn 0 -1 -4.768370445162873E-07
vn 0 2.693671206088766E-07 -1
vn -1 0 0
vn 0 2.693671206088766E-07 -1
vn 0 1 0
vn 0 -1 -4.768370445162873E-07
vn 0 -2.7509827305038925E-07 1
vn 0 -2.2924857034922752E-07 1
vn 1 0 0
vn 0 -2.2924857034922752E-07 1
vn 0 1 0
vn 1 0 0
vn 0 -1 -4.768370445162873E-07
vn 0 2.693671206088766E-07 -1
vn 1 0 0
vn 0 2.693671206088766E-07 -1
vn 0 1 0
vn 1 0 0
# 26 vertex normals

vt 0.25 -0.7500000596046448 0
vt 0.1875 -0.5 0
vt 0 -0.75 0
vt 0.25 -0.5625000596046448 0
vt 0 -0.5624999403953552 0
vt 0 -0.5624999403953552 0
vt 0.0625 -0.5 0
vt 0.1875 -0.75 0
vt 0.125 -0.5 0
vt 0.1875 -0.75 0
vt 0.1875 -0.5625 0
vt 0.1875 -0.5625 0
vt 0.125 -0.5 0
vt 0.1875 -0.5625 0
vt 0.0625 -0.75 0
vt 0.0625 -0.75 0
vt 0.0625 -0.75 0
vt 0.0625 -0.5625 0
vt 0.0625 -0.5625 0
vt 0.0625 -0.5625 0
vt 0.125 -0.5625 0
vt 0.125 -0.75 0
vt 0.125 -0.75 0
vt 0.125 -0.5625 0
vt 0.125 -0.5625 0
vt 0.125 -0.5625 0
# 26 texture coords

g RLegOut
usemtl Material.001
s 2048
f 323/323/323 326/326/326 333/333/333
f 323/323/323 333/333/333 330/330/330
f 332/332/332 334/334/334 346/346/346
f 332/332/332 346/346/346 344/344/344
f 345/345/345 348/348/348 342/342/342
f 345/345/345 342/342/342 339/339/339
f 338/338/338 340/340/340 328/328/328
f 337/337/337 327/327/327 325/325/325
f 331/331/331 343/343/343 336/336/336
f 331/331/331 336/336/336 324/324/324
f 347/347/347 335/335/335 329/329/329
f 347/347/347 329/329/329 341/341/341
#12 polygons

